<?xml version="1.0" encoding="UTF-8"?>
<svg id="Layer_1" data-name="Layer 1" xmlns="http://www.w3.org/2000/svg" viewBox="0 0 1500 1500">
  <defs>
    <style>
      .cls-1 {
        fill: #231f20;
      }

      .cls-2 {
        fill: #fff;
      }
    </style>
  </defs>
  <path class="cls-2" d="M1440.71,580.09v-9.89h-221.74v-51.22l-468.98-225.81-468.98,225.83v51.2H59.29v9.89h256.79v20.91H59.29l75.44,147.54-75.44,150.45h256.79v20.91H59.29v9.89h221.74v51.22l468.98,225.81,468.98-225.83v-51.2h221.74v-9.89h-256.79v-20.91h256.79l-75.42-150.32,75.42-147.67h-256.79v-20.91h256.79ZM1198.91,929.8v38.99l-448.97,215.88-448.86-215.72v-39.15h14.99v25.13l433.92,208.93,433.92-208.95v-25.12h14.99ZM1173.92,950.34l-423.98,203.43-423.98-203.77v-51.01h847.95v51.34ZM1408.27,621.33l-65.04,127.39,65.18,129.95H91.57l65.22-130.07-65.07-127.27h1316.55ZM326.08,601.01v-51.34l423.98-203.43,423.98,203.77v51.01H326.08ZM750,336.13l-433.92,208.95v25.12h-14.99v-38.99l448.97-215.88,448.86,215.72v39.15h-14.99v-25.13l-433.92-208.93Z"/>
  <rect class="cls-2" x="431.71" y="575.49" width="197.25" height="3.23"/>
  <g>
    <path class="cls-2" d="M306.24,750.07c0,30.37-23.97,55.15-56.23,55.15s-55.79-24.78-55.79-55.15,23.25-55.3,55.79-55.3,56.23,24.78,56.23,55.3ZM221.68,750.23c0,28.1,10.17,46.23,28.62,46.23s28.04-18.28,28.04-46.39-8.43-47.29-28.33-47.29-28.33,19.19-28.33,47.44Z"/>
    <path class="cls-2" d="M358.25,697.35v7.55c-6.25,0-11.91,1.36-11.91,10.27v68.29c0,6.65,1.89,11.48,9.01,11.48h15.4c12.78,0,16.71-8.92,17.14-27.04h7.55v27.19c0,6.04-2.18,8.16-7.26,8.16h-77.29v-7.55c8.57,0,12.06-2.42,12.06-11.18v-69.35c0-8.76-5.67-10.27-12.06-10.27v-7.55h47.36Z"/>
    <path class="cls-2" d="M397.62,795.7c6.25,0,12.06-1.51,12.06-9.67v-71.31c0-8.31-5.81-9.82-12.06-9.82v-7.55h44.31c43.88,0,60.29,22.97,60.29,52.73s-17.14,53.18-60.29,53.18h-44.31v-7.55ZM441.93,794.65c21.94,0,34.58-17.53,34.58-44.57s-11.77-44.42-34.58-44.42h-8.86v81.74c0,4.99,1.45,7.25,6.83,7.25h2.04Z"/>
    <path class="cls-2" d="M593.31,805.22c-33.56,0-53.46-24.33-53.46-55.15s18.74-55.3,53.32-55.3c20.63,0,29.35,12.24,32.25,12.24,1.31,0,1.6-2.42,2.04-9.67h7.84v33.09h-8.72c-2.76-14.51-11.91-26.74-28.19-26.74s-32.54,18.43-32.54,46.54,14.09,44.42,31.53,44.42,27.31-11.78,31.09-29.46l8.43,2.11c-3.05,20.55-18.45,37.92-43.59,37.92Z"/>
    <path class="cls-2" d="M690.07,697.35v7.55c-6.25,0-12.35,1.51-12.35,9.82v71.31c0,8.16,6.1,9.67,12.35,9.67v7.55h-48.23v-7.55c6.25,0,12.35-1.51,12.35-9.67v-71.31c0-8.31-6.1-9.82-12.35-9.82v-7.55h48.23Z"/>
    <path class="cls-2" d="M762.86,803.26h-46.93v-7.55c7.12,0,11.77-2.27,11.77-10.42v-79.78h-11.91c-12.49,0-14.67,14.66-15.54,25.38h-7.41v-23.42c0-6.8,3.05-10.12,7.55-10.12h78.6c4.5,0,6.97,3.17,6.97,10.12v23.27h-7.41c-.73-10.73-3.05-25.38-15.54-25.38h-11.77v79.93c0,8.16,4.21,10.42,11.62,10.42v7.55Z"/>
    <path class="cls-2" d="M857.73,803.26h-46.93v-7.55c7.7,0,11.62-2.27,11.62-11.33v-25.84l-21.07-42.15c-3.78-7.25-7.84-11.48-14.82-11.48v-7.55h20.78c9.44,0,11.91,2.72,14.96,9.52l20.34,39.74,16.71-32.33c3.49-6.65-1.45-9.37-7.99-9.37v-7.55h31.96v7.55c-4.65,0-10.17,1.36-15.11,11.03l-22.23,42.61v25.84c0,9.07,4.07,11.33,11.77,11.33v7.55Z"/>
    <path class="cls-2" d="M963.34,803.26h-47.51v-7.55c6.25,0,12.06-1.51,12.06-9.67v-71.31c0-8.31-5.81-9.82-12.06-9.82v-7.55h47.51v7.55c-6.25,0-12.06,1.36-12.06,9.82v26.44h38.5v-26.44c0-8.31-5.67-9.82-11.91-9.82v-7.55h47.36v7.55c-6.25,0-11.91,1.36-11.91,9.82v70.71c0,8.91,5.66,10.27,11.91,10.27v7.55h-47.36v-7.55c6.25,0,11.91-1.51,11.91-9.67v-35.96h-38.5v35.36c0,8.91,5.81,10.27,12.06,10.27v7.55Z"/>
    <path class="cls-2" d="M1062.28,803.26h-36.32v-7.86c5.67,0,11.48.9,15.4-9.37l34-88.69h13.37l30.51,84.76c3.34,9.52,7.99,13.6,16.85,13.6v7.55h-51.29v-8.01c8.14,0,14.82-1.96,10.9-12.54l-4.07-11.03h-33.85l-5.81,15.26c-3.49,9.22,6.68,8.61,10.31,8.31v8.01ZM1074.92,726.05l-13.95,36.87h27.46l-13.51-36.87Z"/>
    <path class="cls-2" d="M1184.46,697.35v7.55c-6.25,0-11.91,1.36-11.91,10.27v68.29c0,6.65,1.89,11.48,9.01,11.48h15.4c12.78,0,16.71-8.92,17.14-27.04h7.55v27.19c0,6.04-2.18,8.16-7.26,8.16h-77.29v-7.55c8.57,0,12.06-2.42,12.06-11.18v-69.35c0-8.76-5.67-10.27-12.06-10.27v-7.55h47.36Z"/>
    <path class="cls-2" d="M1271.2,697.35v7.55c-6.25,0-11.91,1.36-11.91,10.27v68.29c0,6.65,1.89,11.48,9.01,11.48h15.4c12.78,0,16.71-8.92,17.14-27.04h7.55v27.19c0,6.04-2.18,8.16-7.26,8.16h-77.29v-7.55c8.57,0,12.06-2.42,12.06-11.18v-69.35c0-8.76-5.67-10.27-12.06-10.27v-7.55h47.36Z"/>
  </g>
  <rect class="cls-2" x="281.24" y="920.14" width="937.53" height="137.09"/>
  <g>
    <path class="cls-1" d="M345.78,986.07v-.23c6.02-2.67,8.72-7.91,8.72-16.28v-2.91c0-12.56-6.02-18.72-20.02-18.72h-20.39v81.41h21.25c13.51,0,20.51-6.75,20.51-19.3v-6.63c0-8.61-2.83-14.65-10.07-17.33ZM327.6,959.56h6.51c4.79,0,6.88,2.56,6.88,8.37v4.54c0,6.51-3.07,8.61-8.11,8.61h-5.28v-21.51ZM342.34,1009.68c0,6.05-2.46,8.02-7,8.02h-7.74v-25h6.02c6.14,0,8.72,2.33,8.72,9.89v7.09Z"/>
    <path class="cls-1" d="M374.15,947.93l-13.76,81.41h12.41l2.33-14.77h16.58l2.33,14.77h13.63l-13.75-81.41h-19.78ZM376.85,1003.52l6.39-41.17h.25l6.39,41.17h-13.02Z"/>
    <path class="cls-1" d="M454.48,1006.89c0-8.49-2.21-14.54-8.97-17.21v-.23c6.02-2.67,8.84-8.02,8.84-16.4v-6.4c0-12.56-6.02-18.72-20.02-18.72h-20.39v81.41h13.51v-33.14h4.67c6.14,0,8.84,2.79,8.84,10.35v12.79c0,6.63.49,7.91,1.23,10h13.76c-1.35-3.02-1.47-5.93-1.47-9.89v-12.56ZM440.85,975.95c0,6.51-3.07,8.6-8.11,8.6h-5.28v-25h6.51c4.79,0,6.88,2.56,6.88,8.37v8.02Z"/>
    <path class="cls-1" d="M495.02,986.07v-.23c6.02-2.67,8.72-7.91,8.72-16.28v-2.91c0-12.56-6.02-18.72-20.02-18.72h-20.39v81.41h21.25c13.51,0,20.51-6.75,20.51-19.3v-6.63c0-8.61-2.83-14.65-10.07-17.33ZM476.84,959.56h6.51c4.79,0,6.88,2.56,6.88,8.37v4.54c0,6.51-3.07,8.61-8.11,8.61h-5.28v-21.51ZM491.58,1009.68c0,6.05-2.46,8.02-7,8.02h-7.74v-25h6.02c6.14,0,8.72,2.33,8.72,9.89v7.09Z"/>
    <polygon class="cls-1" points="513.2 1029.33 550.05 1029.33 550.05 1017.7 526.71 1017.7 526.71 993.86 545.26 993.86 545.26 982.23 526.71 982.23 526.71 959.56 550.05 959.56 550.05 947.93 513.2 947.93 513.2 1029.33"/>
    <path class="cls-1" d="M577.44,947c-13.27,0-20.14,7.44-20.14,20.47v42.33c0,13.03,6.88,20.47,20.14,20.47s20.14-7.44,20.14-20.47v-10.81h-12.77v11.63c0,5.82-2.7,7.91-7,7.91s-7-2.09-7-7.91v-43.96c0-5.81,2.7-8.02,7-8.02s7,2.21,7,8.02v8.72h12.77v-7.91c0-13.02-6.88-20.47-20.14-20.47Z"/>
    <path class="cls-1" d="M632.72,1010.73c0,5.81-2.7,7.91-7,7.91s-7-2.09-7-7.91v-62.8h-13.51v61.99c0,13.02,6.88,20.47,20.15,20.47s20.14-7.44,20.14-20.47v-61.99h-12.77v62.8Z"/>
    <polygon class="cls-1" points="654.71 1029.33 691.55 1029.33 691.55 1017.7 668.22 1017.7 668.22 993.86 686.76 993.86 686.76 982.23 668.22 982.23 668.22 959.56 691.55 959.56 691.55 947.93 654.71 947.93 654.71 1029.33"/>
    <path class="cls-1" d="M859.48,986.14v-.23c6.17-2.67,8.94-7.9,8.94-16.26v-2.9c0-12.54-6.17-18.7-20.52-18.7h-20.9v81.29h21.78c13.85,0,21.03-6.74,21.03-19.28v-6.62c0-8.6-2.9-14.63-10.33-17.3ZM840.85,959.66h6.67c4.91,0,7.05,2.55,7.05,8.36v4.53c0,6.5-3.15,8.6-8.31,8.6h-5.41v-21.48ZM855.96,1009.71c0,6.04-2.52,8.01-7.18,8.01h-7.93v-24.97h6.17c6.29,0,8.94,2.32,8.94,9.87v7.08Z"/>
    <path class="cls-1" d="M919.66,1006.92c0-8.48-2.27-14.51-9.19-17.19v-.23c6.17-2.67,9.07-8.01,9.07-16.37v-6.39c0-12.54-6.17-18.7-20.52-18.7h-20.9v81.29h13.85v-33.1h4.78c6.3,0,9.06,2.79,9.06,10.34v12.77c0,6.62.51,7.9,1.26,9.99h14.1c-1.39-3.02-1.51-5.92-1.51-9.87v-12.54ZM905.68,976.03c0,6.5-3.15,8.59-8.31,8.59h-5.41v-24.97h6.67c4.91,0,7.05,2.55,7.05,8.36v8.01Z"/>
    <polygon class="cls-1" points="928.72 1029.33 966.49 1029.33 966.49 1017.72 942.57 1017.72 942.57 993.91 961.58 993.91 961.58 982.3 942.57 982.3 942.57 959.66 966.49 959.66 966.49 948.05 928.72 948.05 928.72 1029.33"/>
    <polygon class="cls-1" points="1019.86 1012.61 1019.61 1012.61 1012.82 948.05 999.47 948.05 992.92 1012.15 992.67 1012.15 985.37 948.05 971.9 948.05 981.72 1029.33 1000.73 1029.33 1005.64 986.02 1005.89 986.02 1010.8 1029.33 1029.18 1029.33 1039 948.05 1026.91 948.05 1019.86 1012.61"/>
    <polygon class="cls-1" points="1045.92 1029.33 1083.69 1029.33 1083.69 1017.72 1059.77 1017.72 1059.77 993.91 1078.78 993.91 1078.78 982.3 1059.77 982.3 1059.77 959.66 1083.69 959.66 1083.69 948.05 1045.92 948.05 1045.92 1029.33"/>
    <path class="cls-1" d="M1133.79,1006.92c0-8.48-2.27-14.51-9.19-17.19v-.23c6.17-2.67,9.07-8.01,9.07-16.37v-6.39c0-12.54-6.17-18.7-20.52-18.7h-20.9v81.29h13.85v-33.1h4.78c6.3,0,9.06,2.79,9.06,10.34v12.77c0,6.62.51,7.9,1.26,9.99h14.1c-1.39-3.02-1.51-5.92-1.51-9.87v-12.54ZM1119.82,976.03c0,6.5-3.15,8.59-8.31,8.59h-5.41v-24.97h6.67c4.91,0,7.05,2.55,7.05,8.36v8.01Z"/>
    <polygon class="cls-1" points="1172.69 948.05 1162.24 985.09 1161.99 985.09 1151.54 948.05 1137.06 948.05 1154.56 1002.39 1154.56 1029.33 1168.41 1029.33 1168.41 1002.39 1185.91 948.05 1172.69 948.05"/>
    <path class="cls-1" d="M730.08,1005.43l1.48,9.54h8.61l-8.69-52.6h-12.49l-8.69,52.6h7.84l1.48-9.54h10.48ZM724.72,971.7h.16l4.04,26.6h-8.23l4.04-26.6Z"/>
    <polygon class="cls-1" points="751.89 976.88 762.36 1014.98 771.13 1014.98 771.13 962.38 763.53 962.38 763.53 993.86 763.37 993.86 754.76 962.38 744.05 962.38 744.05 1014.98 751.73 1014.98 751.73 976.88 751.89 976.88"/>
    <path class="cls-1" d="M803.5,1001.98v-26.6c0-8.42-4.19-13-12.73-13h-13.51v52.6h13.51c8.54,0,12.73-4.58,12.73-13ZM794.96,1002.35c0,3.76-1.63,5.11-4.35,5.11h-4.81v-37.57h4.81c2.72,0,4.35,1.35,4.35,5.11v27.35Z"/>
    <rect class="cls-1" x="709.54" y="947.92" width="97.28" height="2.8"/>
    <rect class="cls-1" x="709.54" y="1026.46" width="97.28" height="2.8"/>
  </g>
  <g>
    <path class="cls-2" d="M464.05,541c0,10.27-8.99,21.83-20.5,21.83-7.66,0-12.03-5.61-11.84-12.55.24-11.27,9.08-22.02,20.4-22.02,7.8,0,11.94,5.14,11.94,12.75ZM437.28,551.56c-.1,4.85.95,9.51,6.51,9.51,7.94,0,14.36-11.32,14.65-22.07.1-4.95-1.76-8.99-6.28-8.99-8.99,0-14.6,12.08-14.89,21.54Z"/>
    <path class="cls-2" d="M486.74,551.79c0,6.33-5.99,10.61-11.94,10.61-6.33,0-7.66-4.09-8.51-4.09-.57,0-.9.67-2.19,3.76h-2.14l3.28-10.61h2.09c.09,5.9,2.76,8.94,7.18,8.94s7.32-2.52,7.28-6.42c-.1-6.23-11.56-7.99-11.56-16.22,0-5.94,4.71-9.42,10.27-9.42,6.04,0,7.51,3.47,8.42,3.47.48,0,.95-.67,2.24-3.09h1.71l-3.43,10.32h-1.85c.57-5.04-1.81-8.8-6.47-8.8-3.19,0-5.8,2.05-5.8,5.61,0,6.71,11.41,7.66,11.41,15.93Z"/>
    <path class="cls-2" d="M514.09,538.48l-14.65,23.59h-1.9l-.33-27.68c-.1-4.04-2.09-4.04-4.04-4.04l.57-1.62h4.23c3.81,0,4.38,2.14,4.47,5.57l.14,18.64,14.51-24.21h1.81l1.62,24.64,12.22-19.93c1.81-2.95-.67-3.04-2.61-3.04l.57-1.66h10.94l-.57,1.66c-2.04,0-3.9.19-5.56,2.9l-17.79,28.77h-2l-1.62-23.59Z"/>
    <path class="cls-2" d="M556.04,562.07h-25.16l.52-1.66c2.52,0,4.38-.86,5.47-4.28l6.9-21.64c.76-2.28.38-4.09-2.71-4.09l.52-1.66h22.54c1.66,0,2.09.76,1.66,2.05l-2.09,6.94h-1.81c1.05-3.95.38-7.37-3.38-7.37h-8.32l-4.04,12.6h3.33c3.47,0,5.42-2.66,6.18-4.85h1.85l-3.99,11.99h-1.76c1-3.33.19-5.37-2.42-5.37h-3.71l-4.09,12.75c-.62,1.85.43,2.66,2.04,2.66h5.14c6.8,0,9.27-3.38,10.65-7.61h1.95l-2.33,7.47c-.48,1.57-1.05,2.09-2.95,2.09Z"/>
    <path class="cls-2" d="M586.82,557.69c-2.76,3.33-6.28,5.09-10.7,5.09-8.89,0-13.08-8.23-10.13-18.5,2.61-9.04,9.75-15.93,18.88-15.93,6.71,0,8.32,3.66,9.18,3.66.52,0,.86-.66,2.19-3.28h1.95l-3.33,10.42h-1.81c.38-5.47-2.47-8.89-7.8-8.89-6.28,0-11.27,6.66-13.51,15.27-2.33,8.84-.86,15.27,5.57,15.27,4.18,0,7.85-3.33,9.7-8.66.71-2.28-.43-3.19-3.28-3.19l.52-1.66h5.8c2.24,0,3.24,1.09,2.62,2.95l-3.81,11.84h-.52c-1.19,0-1.76-1.33-1.52-4.37Z"/>
    <path class="cls-2" d="M628.95,541c0,10.27-8.99,21.83-20.5,21.83-7.66,0-12.03-5.61-11.84-12.55.24-11.27,9.08-22.02,20.4-22.02,7.8,0,11.94,5.14,11.94,12.75ZM602.18,551.56c-.1,4.85.95,9.51,6.51,9.51,7.94,0,14.36-11.32,14.65-22.07.1-4.95-1.76-8.99-6.28-8.99-8.99,0-14.6,12.08-14.89,21.54Z"/>
  </g>
  <rect class="cls-2" x="837.06" y="575.49" width="246.87" height="3.23"/>
  <g>
    <path class="cls-2" d="M847.36,562.07h-10.56l.48-1.66c2.19-.1,3.95-.43,5.04-3.81l7.09-22.26c1-3.04-.38-3.9-2.33-3.95l.52-1.66h5.38c1.38,0,2.14.43,2.76,2l8.84,22.21,5.85-18.6c.95-2.99.48-4.09-2.95-3.9l.43-1.71h10.7l-.52,1.62c-2.19.14-4.09.48-5.14,3.85l-8.85,27.87h-1.71l-10.7-27.25-6.9,21.64c-.95,3-.43,4.04,3.09,3.9l-.52,1.71Z"/>
    <path class="cls-2" d="M894.44,562.07h-25.16l.52-1.66c2.52,0,4.38-.86,5.47-4.28l6.9-21.64c.77-2.28.38-4.09-2.71-4.09l.52-1.66h22.54c1.67,0,2.09.76,1.67,2.05l-2.09,6.94h-1.81c1.05-3.95.38-7.37-3.38-7.37h-8.32l-4.04,12.6h3.33c3.47,0,5.42-2.66,6.18-4.85h1.85l-3.99,11.99h-1.76c1-3.33.19-5.37-2.42-5.37h-3.71l-4.09,12.75c-.62,1.85.43,2.66,2.04,2.66h5.14c6.8,0,9.27-3.38,10.66-7.61h1.95l-2.33,7.47c-.48,1.57-1.04,2.09-2.95,2.09Z"/>
    <path class="cls-2" d="M926.5,538.48l-14.65,23.59h-1.9l-.33-27.68c-.09-4.04-2.09-4.04-4.04-4.04l.57-1.62h4.23c3.81,0,4.38,2.14,4.47,5.57l.15,18.64,14.5-24.21h1.81l1.62,24.64,12.22-19.93c1.81-2.95-.66-3.04-2.61-3.04l.57-1.66h10.94l-.57,1.66c-2.04,0-3.9.19-5.56,2.9l-17.79,28.77h-1.99l-1.62-23.59Z"/>
    <path class="cls-2" d="M958.8,562.07l.57-1.71c2.71,0,4.42-1.19,5.28-3.8l3.23-10.04-2.28-12.27c-.57-3.28-2.38-3.9-4.76-3.9l.57-1.62h4.85c2.04,0,3.56.67,3.99,2.62l2.52,12.74,8.8-11.08c1.33-1.62-.19-2.62-2.28-2.62l.52-1.66h11.08l-.57,1.66c-1.62,0-4.37.38-6.32,2.86l-11.37,14.12-3,9.75c-.71,2.33.48,3.19,3.48,3.19l-.52,1.76h-13.79Z"/>
    <path class="cls-2" d="M1016.2,541c0,10.27-8.98,21.83-20.5,21.83-7.66,0-12.03-5.61-11.84-12.55.24-11.27,9.09-22.02,20.4-22.02,7.8,0,11.93,5.14,11.93,12.75ZM989.43,551.56c-.1,4.85.95,9.51,6.51,9.51,7.94,0,14.36-11.32,14.65-22.07.1-4.95-1.76-8.99-6.27-8.99-8.99,0-14.6,12.08-14.89,21.54Z"/>
    <path class="cls-2" d="M1034.18,557.88c.05-2.47,1.28-5.37,1.33-7.8.05-2.62-1.67-4.66-6.71-4.66h-1.33l-3.71,11.51c-.81,2.52.29,3.38,3.43,3.38l-.52,1.76h-13.69l.52-1.66c2.28,0,4.28-.95,5.19-3.66l7.28-22.59c.9-2.9-.1-3.81-2.71-3.76l.57-1.66h11.84c7.42,0,12.46,1.9,11.22,8.32-.81,4.09-5.37,6.71-10.42,7.42h.05c3.47.71,4.52,2.81,4.52,5.18,0,3.28-1.72,7.23-1.72,9.23,0,.81.48,1.33,1.28,1.33,1.09,0,2.04-1.33,2.9-3.61l1.67.67c-.95,2.81-2.48,5.28-5.52,5.28-4.09,0-5.47-2.19-5.47-4.66ZM1028.05,543.66h1.28c5.42,0,11.18-1.62,12.13-7.61.71-4.52-2.62-5.61-5.95-5.61h-3.19l-4.28,13.22Z"/>
    <path class="cls-2" d="M1066.43,557.88c.05-3.09,2.04-6.75,2.09-9.84.04-1.19-.86-3.14-3.99-3.14-1.62,0-3.62,1.38-6.14,3.99l-2.62,8.04c-.85,2.61.38,3.38,3.43,3.38l-.52,1.76h-13.69l.52-1.66c2.19,0,4.24-.67,5.09-3.47l7.32-22.64c.86-2.71.19-3.9-2.66-3.9l.57-1.66h12.89l-.57,1.66c-2.66.05-4.14,1.05-4.8,3.14l-3.61,11.18,14.08-12.32c1.38-1.19.38-1.9-1.95-1.9l.48-1.76h11.61l-.67,1.76c-1.38,0-4.28.43-5.66,1.57l-12.6,10.6c4.95-1.71,8.89,1.14,8.89,5.09,0,3.66-2.33,8.75-2.33,11.13,0,.81.48,1.33,1.28,1.33,1.09,0,2.04-1.33,2.9-3.61l1.66.67c-.95,2.81-2.47,5.28-5.56,5.28-4.04,0-5.42-2.19-5.42-4.66Z"/>
  </g>
  <g>
    <path class="cls-2" d="M706.43,566.63c-9.37-5.18-17.36-12.16-23.42-20.88-4-5.77-7.01-11.97-8.67-19.1,2.2,1.34,3.71,3.12,5.88,4.13-6.58-10.66-9.28-22.15-5.53-34.26,4.03-13.02,13.22-23.34,10.97-37.25-.57-3.32-1.63-6.28-3.66-8.99-.15-.31-.14-1.3.17-1.45.53-.26,1.63-.22,2.2.05,9.33,4.42,17.26,10.32,22.86,18.99.31-3.59-.25-7.06-1.6-10.36l-3.65-8.96c-1.28-3.14-2.29-6.22-2.8-9.62-1.58-10.64,2.83-20.46,10.81-27.35.24-.21.96-.29,1.25-.23.34.08.62.96.56,1.34l-1.04,5.9c-.66,3.75-.4,7.57.83,11.16,1.19,3.5,3.42,6.23,5.88,8.91,1.48,1.62,2.83,3.23,3.52,5.29,3.09-4.8,6.63-9.21,10.37-13.67,7.6-9.07,14.15-17.59,17.01-29.33,1.54-6.33,1-12.57-1.69-18.5-.13-.28-.04-.97.11-1.24.17-.31,1.04-.48,1.41-.26,6.09,3.57,11.46,8.01,16.02,13.38,5.8,6.83,9.2,14.98,9.84,23.95.34,4.71-.3,9.13-1.04,13.77l-1.29,8.1c-.41,2.56,0,5.12.87,7.5.71,1.94,2.58,2.97,4.61,2.44,2.91-.76,4.86-3.85,5.76-6.78,1.61-5.22,1.76-10.61.65-15.95-.62-2.98-1.49-5.63-2.44-8.53-.1-.31.03-.92.22-1.15.22-.26,1.09-.21,1.46.07,6.91,5.09,12.74,11.45,16.93,18.96,3.53,6.31,5.51,12.98,6.2,20.16.76,7.97-.34,15.67-3.27,23.09l-3.12,9c-.96,2.77-.89,5.61-.35,8.55,5.91-5.53,8.89-13.56,9.16-21.66.02-.47.62-1.15.99-1.26.41-.12,1.31.25,1.61.79,4.55,8.22,7.84,17.06,9.49,26.39,2.12,11.98.65,24.06-4.8,34.96-4.15,8.3-10.27,15.29-17.55,21.06-13.14,10.44-29.01,16.94-45.7,18.91-12.26,1.45-26.39-1.18-37.51-6.23l-8.5-3.86ZM768.72,482.18c.9-1.77-.98-6.1.79-6.03.27,0,.83.47.87.75l.36,2.61,1.63-1.97-.43-4.39c-.03-.31.38-1.04.69-1.06.26-.01.85.42.9.7l.54,3.02,2.76-2.65-.39-3.55c-.03-.28.36-.88.61-.91.2-.03.74.36.79.57l.57,2.68c2.05-1.85,7.97-5.42,8.01-4.46l.03.61c-.64,3.94-1.21,7.75-1.07,11.77l1.37-2.84c.09-.2.81-.31.93-.14s.38.77.3,1l-2.17,6.04c-.43,1.2.21,2.84.39,4.06l1.71-4.8,3.25-7.89c.11-.26.74-.71.97-.57,2.15,1.33-5.37,12.86-4.68,18.29.55,4.37,2.58,8.35,3.76,12.57l2.57,9.11c.82,4.17.77,8.19-.13,12.46,2.43-2.56,3.5-5.53,4.88-8.71l1.51,7.98,1.69-3.18c.13-.24.86-.44,1.05-.25.15.15.4.8.28,1.03l-2.7,5.36-.19,4.58,4.09-6.73.94-.28c.83-.25-.04,2.55-1.4,4.62l-4.05,6.15-1.14,4.91,3.62-4.36c.25-.3.88-.59,1.16-.44s.6.97.42,1.25c-2.9,4.49-6.19,6.62-7.16,8.4l-2.86,5.25c-.16.03.07-.01.23-.05,2.76-1.99,5.02-4.26,7.3-6.79.24-.27,1.02-.52,1.23-.28.18.2.25.77.24,1.2-3.65,4.53-8.04,8.12-13.02,11.05l-6.72,6.48c12.9-6.55,24.82-17.08,30.92-30.32,4.31-9.36,5.64-19.7,4.11-29.91-1.24-8.21-3.75-15.91-7.4-23.52-1.07,7.44-4.41,13.89-9.68,19.08-.5.49-.79,1.15-.63,1.82.66,2.82,1.63,5.41,3.01,7.93.62,1.12,1.38,2.09,1.53,3.58-8.12-6.3-10.56-17.85-7.23-27.03l2.79-7.67c2.21-6.09,3.3-12.22,2.99-18.73-.69-14.53-7.23-26.57-17.95-36.14,1.37,5.27,2,10.55,1.15,15.94-.81,5.19-2.81,10.94-7.69,13.01-3.68,1.57-7.57-.15-8.96-3.89-1.08-2.88-1.44-5.96-.94-9.07l1.64-10.06c.99-6.06,1-11.99-.52-17.92-1.4-5.47-3.88-10.29-7.45-14.62-2.73-3.31-5.57-6.28-9.11-8.83,2.46,4.09,4.47,8.21,5.61,12.85,1.46,5.61,1.27,11.22-.47,16.72-.31.26-.64.48-.89.5s-.56-.72-.51-.98c.96-5.84.88-11.61-.82-17.24-1.19-3.95-2.73-7.59-5-10.93.59,3.62.59,7.06-.07,10.68-2.16,11.87-8.68,21.11-16.16,30.23l-7.13,8.69c-9.4,11.46-14.97,26.58-15.13,41.44l-.1,9.01c-.02,1.51-.08,2.85-.53,4.31-.59-1.59-.81-2.95-.95-4.44-.29-3.13-.96-6.02-1.85-9.05-3.56-12.1-11.72-20.54-22.75-26.55,6.09,17.58-4.35,28.51-9.26,43.21-3.89,11.63-1.36,22.94,5.1,33.14l3.1,4.89c.09.15.14.61.11.78s-.68.4-.9.32l-5.54-1.95c4.19,10.13,11.54,18.93,20.23,25.35-1.83-2.47-3.3-4.86-4.67-7.49l-3.48-3.12c-.33-.3-.44-1.37-.07-1.57.63-.34,1.25.35,2,.95-1.36-3.5-1.91-7.26-2.48-11.15-3.78-3.77-6.84-8.1-8.58-13.41-.1-.32.33-1.1.63-1.03.26.06.69.28,1.02.48,1.47,4.13,3.82,7.72,6.73,11.05l-.07-5.15c-2.61-3.59-4.42-7.66-5.15-12.12-.09-.54.42-1.16.86-1.09.3.05.74.56.84.92.88,3.28,1.81,6.29,3.75,9.25,1.02-11.02,4.72-22.02,9.69-31.83.33-.66.87-1.32,1.34-1.85.31,5.3.7,10.42,4.55,14.09,1.54,1.47,4.09,1.97,6.05,1.11,3.54-1.56,4.48-7.13,5.49-10.99l1.61-8.01c-.39-5.84-.18-11.48,1.08-17.16.07-.33.62-.78.91-.83s.74.65.69.98c-.5,3.52-.93,6.8-.93,10.2l3.95-11.53,2.07-8.41c.65-2.64,1.71-5.23,2.85-7.55.16-.33.95-.63,1.22-.49s.4.77.29,1.09l-2.65,7.69c5.57-10.06,13.16-18.87,22.37-25.98.39-.3,1.22-.43,1.64-.25.06,1.06-.26,2.15-.63,3.14-3.5,9.15-2.24,16.99,2.93,25.11l6.31,9.92c-.2-3.26-2.68-7.17-1.04-7.54,1.77-.39,3.53,9.24,3.53,12.88l2.04,7.51,2.32-4.59ZM714.09,452.67c.5-.44,1.45.67,1.55,1.38l3.13-6.69c.58-1.25-.51-3.35-1.28-4.29l-3-3.62c-5.86-6.32-7.86-13.55-6.33-22.08-5.35,6.06-7.57,14-6.12,22,2.04,11.22,9.87,18.67,7.51,31.93-.14.81.62,1.97,1.04,2.87.72-6.16,2.04-12.2,4.28-18.1-.98-.86-1.86-2.45-.79-3.41ZM729.23,508.75c.78-12.34,8.95-22.88,18.02-30.52.19-.16.85-.22,1.01-.05.16.18.29.74.22,1.05-.63,2.74-1.19,5.63-1.3,8.51-.48,12.24,6.23,19.94,14.88,27.52,3.29,2.88,6.31,5.75,9.09,9.13,5.78,7.04,8.65,15.88,7.69,24.95-.61,5.78-2.52,10.96-6.01,15.66,4.39-3.2,7.7-7.43,10.49-12.06.21-.36,1.01-.59,1.23-.34.18.21.29.91.16,1.17-3.07,6.08-7.75,10.84-13.4,14.6l5.84-3.19c3.73-2.57,7.16-5.34,10.19-8.72,7.49-8.77,10.97-17.63,9.97-29.45-2.41,3.3-5.3,5.91-8.98,7.76l2.26-6.86c1.46-4.43,1.34-9.02.27-13.57l-3.27-10.81c-3.69-10.41-6.14-20.56-4.49-31.65-10.02,6.7-15.56,15-17.37,26.74-.2,1.29-.44,2.35-.91,3.55l-.5-9.58c-.36-7.01-2.45-13.62-6.23-19.5l-5.14-7.99c-4.73-7.61-6.13-14.66-4-23.45-7.2,6.5-13.37,13.97-17.8,22.64-4.53,8.86-7.43,18.22-9.45,27.92-.76,3.64-1.49,7.03-2.64,10.51-.76,2.31-2.06,4.52-4.03,5.93-3.26,2.32-7.35,1.64-10.51-.79,1.36,3.26,4.15,5.52,7.66,5.71.42.02.97.31,1.17.57.19.26,0,1.25-.33,1.29-1.35.15-3.09-.15-4.32-.66-5.29-2.55-7.43-7.92-8.45-13.46-6.21,14.12-9.36,31.26-4.03,45.87,2.59,7.1,7.52,13.03,13.74,17.23,3.82,2.58,7.83,4.4,12.07,5.87-4.85-3.01-9.22-6-12.23-10.89-.17-.27.17-1.26.48-1.22.26.03.66.17,1.04.32,2.15,3.06,4.63,5.72,7.85,7.74-2.69-3.08-4.82-6.23-6.4-9.98-2.46-2.25-4.99-8.28-3.21-7.93.26.05.71.38.84.61l.66,1.18c-1.62-10.76,2.02-22.69,9.43-30.66.38-.41.94-.6,1.66-.77l-.27,2.38c-.67,3.58-.09,7.25,2.05,10.22,1.25,1.74,3.44,2.77,5.52,2.17,2.35-.68,3.63-2.97,3.69-5.4.15-5.7-4.41-11.28-3.91-19.31ZM726.75,568.66c11.87,7.2,26.94,7.95,38.39-.17,4.14-2.94,7.18-6.86,9.05-11.57,3.79-9.57,2.38-20.28-3.52-28.67-2.17-3.08-4.61-5.63-7.34-8.2l-8.27-7.75c-7.92-7.42-11.86-17.19-10.17-28.37-5.72,5.95-10.26,12.16-12.28,20.41-1.1,4.48-.69,8.86.73,13.24l2.13,6.6c1.28,3.96-.07,10.31-5.03,11.81-2.69.81-5.26.12-7.36-1.71-2.42-2.1-3.56-5.15-4.1-8.47-9.05,14.4-7.45,33.64,7.76,42.86Z"/>
    <path class="cls-2" d="M734.12,417.63c-3.03,3.59-5.68,7.06-8.02,11-.36.2-.78.4-1.03.44s-.43-.78-.4-1.03c.85-4.56.64-8.96-.77-13.35-.81-3.2-1.8-6.18-2.16-9.52-1.57-14.68,6.68-27.32,18.22-35.76.28-.21,1.03-.19,1.31-.03,1.75,1.01-4.83,9-.84,19.43,4.68,12.25,1.92,19.04-6.3,28.82ZM730.13,418.14c2.57-2.97,4.88-5.95,7-9.24,2.55-3.96,3.41-8.47,2.49-13.07-.43-1.94-.92-3.79-1.63-5.65-1.88-4.91-2.08-9.96-.68-15.12-10.59,9.62-15.96,22.53-11.39,36.47.92,2.8,1.4,5.49,1.89,8.24,1.21-4.22.43-8.41-.56-12.64-.11-.47.55-1.17.96-1.07,1.35.32,2.56,8.57,1.91,12.08Z"/>
    <path class="cls-2" d="M808.06,536.59l1.68-3.87c1.98-4.55,3.57-9.11,4.11-14.08l.87-8.06c.03-.25.5-.94.7-.79s.48.48.73.82c.4,9.44-2.14,18.55-6.88,26.69l-.81.21c-.21.05-.51-.69-.41-.91Z"/>
    <path class="cls-2" d="M725.48,450.49l-2.61,5.01c-.09.17-.58.52-.75.43-.2-.11-.34-.59-.38-.95,2.86-7.84,7.14-14.89,12.93-20.86.47-.16.99-.27,1.28-.16.41.16.34,1.02,0,1.4-4.19,4.59-7.53,9.53-10.46,15.13Z"/>
    <path class="cls-2" d="M681.13,512.63c.05.37-.25,1.14-.49,1.11-.24-.03-.7-.22-1.02-.4-1.72-8.66.48-16.18,4.42-23.99.18-.36.81-.66,1.1-.53.31.15.53.88.38,1.23-3.46,7.74-5.53,13.61-4.39,22.59Z"/>
    <path class="cls-2" d="M794.57,495.9c.03.59-.36,1.2-.73,1.24-1.87.18-1.14-7.13-.34-10.49.99-4.12,2.35-8.15,3.97-12.02.35.02.89.12.91.31l.11,1.04-3.12,10.8c-.64,3.02-.99,5.86-.81,9.12Z"/>
    <path class="cls-2" d="M799.16,452.5c.46,3.29,1.08,10.33-.51,9.94-.26-.06-.64-.58-.65-.9-.23-4.73-.59-9.21-1.77-13.78l-1.73-4.91c-.09-.26.25-.98.51-1.02s.82.21.95.45c1.73,3.24,2.71,6.59,3.21,10.22Z"/>
    <path class="cls-2" d="M762.75,435.84c-.1.32-.54.7-.79.74-.3.04-.89-.71-.8-1.04l1.8-6.65c.98-3.68,1.58-7.24,1.39-11.09.22-.33.54-.71.78-.83.29-.14.99.48,1.01.82.24,4.31-.32,8.49-1.64,12.58l-1.76,5.47Z"/>
    <path class="cls-2" d="M717.5,484.21c-.01.36-.46.9-.7.92-.28.02-.79-.51-.8-.84-.15-5.28.32-10.32,1.36-15.5.48-2.4,1.56-3.25,1.83-2.57l.36.91c-1.17,5.67-1.87,11.16-2.06,17.07Z"/>
    <path class="cls-2" d="M766.78,447.45c.85,4.53,3.77,6.61,3.39,7.92-.53,1.82-7.93-5.46-4.82-16.54.07-.26.58-.67.84-.72,1.47-.26-.36,4.35.58,9.34Z"/>
    <path class="cls-2" d="M744.14,425.41c-.26.31-1.01.54-1.28.46-.32-.09-.46-.95-.24-1.27l2.21-3.19c2.48-3.47,4.58-7.06,6.15-11.06l.87-.46c.26-.14.6.87.49,1.16-2.09,5.18-4.59,10.01-8.19,14.36Z"/>
    <path class="cls-2" d="M706.33,479.97c1.69,4.27,2.96,13.84,1.27,13.91-.47.02-1.01-.44-1.02-.97-.13-4.33-.62-8.38-2.02-12.49-.14-.41.24-1.13.61-1.22.34-.07,1,.35,1.16.77Z"/>
    <path class="cls-2" d="M694.97,462.11c2.28,2.11,7.29,7.55,5.83,8.62-.26.19-1.02-.02-1.22-.31-1.78-2.63-3.58-4.82-5.88-7.02-.22-.21-.28-.9-.14-1.17.17-.32,1.11-.39,1.42-.11Z"/>
    <path class="cls-2" d="M786.57,448.77c2.38.54-5.47,10.24-7.06,8.12-.17-.23-.13-.97.13-1.15,4.93-3.38,5.4-7.32,6.93-6.97Z"/>
    <path class="cls-2" d="M805.94,502.08l-1.85,2.42c-.21.27-1.12.32-1.38.11-.3-.23-.27-1.07.03-1.45,1.67-2.15,3.2-4.1,4.45-6.53.16-.31.64-.68.92-.65,1.68.15-.5,3.9-2.18,6.1Z"/>
    <path class="cls-2" d="M733.81,450.29c-.15.24-.78.45-1.01.44-.29-.01-.62-.85-.48-1.12,1.12-2.16,3.12-5.52,4.06-4.5.23.25.1.8-.15,1.21l-2.42,3.97Z"/>
    <path class="cls-2" d="M688.68,480.56c1.66-.84-.75,6.97-2.46,5.27-.23-.23-.14-.86.07-1.28l1.64-3.32c.12-.25.57-.57.75-.66Z"/>
    <path class="cls-2" d="M764.71,462.33c.14.28,0,1.03-.2,1.22-.24.22-1.07.07-1.23-.26l-1.53-3.18c-.12-.26.15-.97.35-1.12.24-.18.99-.05,1.14.27l1.48,3.08Z"/>
    <path class="cls-2" d="M723.61,465.4c-.06.21-.42.6-.56.73-.18.17-1.05-.03-1.04-.32.08-1.86.77-4.71,1.89-4.7.32,0,.67.74.58,1.06l-.87,3.22Z"/>
    <path class="cls-2" d="M806.36,534.8c-.13.27-.88.48-1.13.38s-.57-.79-.44-1.05l1.38-2.79c.13-.26.74-.52,1.01-.46s.65.85.53,1.11l-1.36,2.81Z"/>
    <path class="cls-2" d="M759.35,461.59c.11.26,0,.87-.14,1.09-.17.27-1.17.2-1.32-.09-.97-1.9-1.46-4.08-.54-4.19.24-.03.77.26.88.53l1.12,2.66Z"/>
    <path class="cls-2" d="M767.2,479.11c-.15.56-1.2.18-1.27-.38l-.44-3.74c-.02-.2.26-.68.4-.78.61-.43,1.92,2.67,1.31,4.9Z"/>
    <path class="cls-2" d="M776.86,457.76c-.81,1.32-4.1.62-4.02-.67.01-.23.56-.69.79-.66l2.84.35c.22.03.5.79.39.98Z"/>
    <path class="cls-2" d="M702.88,487.45c.05.28-.39.88-.64.96-.3.1-1.05-.35-1.08-.68l-.24-2.84c-.02-.25.38-.73.6-.74.22-.01.84.31.88.54l.48,2.75Z"/>
    <path class="cls-2" d="M682.74,519.26c.07.22-.21.84-.41.92-1.25.53-2.6-3.53-1.39-3.98.27-.1.91.2,1,.49l.8,2.56Z"/>
    <path class="cls-2" d="M713.83,503.64c-.02.26-.46.69-.66.79s-.92-.23-.95-.46c-.24-1.85.11-3.82,1.21-3.68.25.03.66.58.64.84l-.23,2.51Z"/>
    <path class="cls-2" d="M799.31,469.45c-.03.29-.64.79-.91.75s-.8-.6-.77-.89l.24-2.54c.03-.26.55-.69.79-.73.29-.05.89.54.86.87l-.22,2.54Z"/>
    <path class="cls-2" d="M769.71,472.7c.15.42-.08,1.32-.42,1.48-.33.15-1.16-.14-1.31-.55-.53-1.44-.45-2.9.36-3.11.17-.05.66.23.72.39l.65,1.79Z"/>
    <path class="cls-2" d="M756.24,446.58c0,.22-.35.68-.55.77-1.2.5-1.45-3.67,0-4.5.15-.08.6.43.6.6l-.04,3.13Z"/>
    <path class="cls-2" d="M704.44,475.27c.13.25-.04.97-.23,1.13-1.04.9-3.17-3.1-1.93-3.49.25-.08.96.08,1.08.31l1.07,2.05Z"/>
    <path class="cls-2" d="M765.65,412.93c.07.28-.46.99-.73,1s-.92-.33-.97-.61l-.4-2.29c-.04-.22.25-.71.42-.86.21-.18,1.04.11,1.1.39l.58,2.37Z"/>
    <path class="cls-2" d="M762.16,455.7c.05.22-.11.75-.25.89-.17.19-.88.06-1.06-.19-.9-1.26-.99-3.26-.05-3.51.26-.07.82.37.88.64l.49,2.17Z"/>
    <path class="cls-2" d="M686.02,506.41c0,.35-.26.96-.5,1.08s-.94-.18-1.04-.44c-.53-1.35-.05-3.74,1.03-3.69.18,0,.48.49.48.69l.03,2.36Z"/>
    <path class="cls-2" d="M816.01,506.09c.03.24-.4.82-.63.89-.23.07-.84-.2-.93-.42-.57-1.33-.43-2.91.48-3.2.21-.07.75.35.78.58l.3,2.15Z"/>
    <path class="cls-2" d="M790.57,492.69c-.04.24-.69.63-.9.59-.27-.05-.7-.62-.64-.9l.54-2.57c.05-.23.65-.54.87-.48s.58.64.54.88l-.4,2.48Z"/>
    <path class="cls-2" d="M795.28,501.06c.79,1.07,1.1,2.79.39,3.17-1.11.6-2.38-3.24-1.37-3.49.21-.05.84.13.99.32Z"/>
    <path class="cls-2" d="M720.72,458.75c1.03-.03.57,3.38-.75,3.59-.25.04-.75-.56-.72-.82.2-1.48.52-2.74,1.47-2.77Z"/>
    <path class="cls-2" d="M691.57,517.48c-1.68.06-2.11-2.87-.87-3.48,1.18.19,1.67,2.58.87,3.48Z"/>
    <path class="cls-2" d="M806.66,541.7c-.65,1.43-1.61,2.66-2.43,2.19-.21-.12-.34-.82-.2-1.03l1.26-1.91c.12-.18.7-.36.92-.34.27.03.56.83.45,1.09Z"/>
    <path class="cls-2" d="M793.55,467.98c1.25.33.52,3.77-.48,3.64-.93-.11-1.04-1.85-.33-3.22.1-.19.62-.48.81-.43Z"/>
    <path class="cls-2" d="M807.66,520.63c1.24.4-.57,4.29-1.47,3.67-.95-.66.44-4,1.47-3.67Z"/>
    <path class="cls-2" d="M810.9,491.22c.02,2.06-1.26,3.44-1.74,2.81-.13-.17-.38-.76-.31-.96l.73-2.22c.05-.16.59-.38.76-.35.22.04.57.48.57.72Z"/>
    <path class="cls-2" d="M794.91,457.56c.02.24-.43.79-.66.82-.27.04-.84-.44-.86-.72l-.17-2.21c-.02-.25.38-.75.62-.81.29-.07.89.46.91.75l.15,2.16Z"/>
    <path class="cls-2" d="M789.12,474.04c-.03.22-.7.61-.9.53-1.33-.56-.13-4.05.72-3.68.15.06.52.49.5.65l-.33,2.5Z"/>
    <path class="cls-2" d="M712.82,495.85c.19,1.44-.4,2.83-1.09,2.75-.87-.1-1.03-1.8-.39-3.01.1-.19.66-.46.87-.42s.58.46.61.68Z"/>
    <path class="cls-2" d="M716.11,494.54c.36,1.79.05,3.29-.74,3.16-.22-.04-.7-.5-.7-.72l.08-2.39c0-.2.42-.63.62-.64s.69.37.73.58Z"/>
    <path class="cls-2" d="M795.54,510.78c.06.22-.32.8-.52.82-.21.01-.75-.16-.87-.33-.71-1-.91-2.86-.1-3.23.2-.09.79.23.85.44l.64,2.31Z"/>
    <path class="cls-2" d="M796.84,517.73c.01.19-.43.72-.61.69-1.25-.19-1.46-2.94-.45-3.52.21-.12.86.31.88.57l.18,2.26Z"/>
    <path class="cls-2" d="M699.81,481.31c-.68-1.25-1.08-2.4-.36-2.91.19-.14.74.02.87.22.93,1.37,1.24,2.72.42,3.02-.22.08-.82-.11-.93-.33Z"/>
    <path class="cls-2" d="M685.2,509.93c.87-.51,1.84,2.76.42,3.28-1.2-.31-1.5-2.64-.42-3.28Z"/>
    <path class="cls-2" d="M687.96,542.67c.82-.52,2.81,1.63,2.09,2.56-.14.18-.71.34-.92.22-1.2-.69-1.9-2.32-1.17-2.78Z"/>
    <path class="cls-2" d="M794.28,461.94c1.16.67.57,3.68-.45,3.48-.22-.05-.69-.53-.66-.78l.38-2.4c.02-.15.59-.38.72-.3Z"/>
    <path class="cls-2" d="M686.76,499.19c-.04.24-.58.61-.8.62-.83.01-.92-1.22-.4-2.86.08-.24.66-.56.9-.51s.69.56.65.81l-.35,1.95Z"/>
    <path class="cls-2" d="M788.68,443.3c1.01.44-.2,3.72-.95,3.35-.99-.49-.62-2.34.22-3.17.11-.11.59-.24.73-.18Z"/>
    <path class="cls-2" d="M690.95,476.09c-.15.22-.86.39-1.02.18-.62-.78-.03-2.9,1-3.32,1.05.71.59,2.3.02,3.13Z"/>
    <path class="cls-2" d="M769.56,424.28c.21,1.13-.02,2.45-.79,2.78-.21.09-.76-.35-.8-.59-.16-1.15.14-2.57.82-2.77.22-.06.72.36.76.58Z"/>
    <path class="cls-2" d="M810.08,501.93c-.13,1.02-.77,2.2-1.56,2.18-1.1-.69-.1-3.21,1.05-3.19.24,0,.55.69.51,1.01Z"/>
    <path class="cls-2" d="M739.03,430.88c-.34.12-.87-.72-.68-1.04.77-1.25,1.64-2.11,2.25-1.56.67.61-.08,2.08-1.57,2.6Z"/>
    <path class="cls-2" d="M768.47,430.76c.37,1.05-.1,2.67-.98,2.68-.96.01-.82-1.62-.51-2.15l.46-.81c.12-.22.94.02,1.03.27Z"/>
    <path class="cls-2" d="M746.33,435.22c-.26.13-.94.01-1.13-.14-.61-.5.51-2.02,2.68-2.17-.03,1.17-.67,1.88-1.56,2.32Z"/>
    <path class="cls-2" d="M757.71,422.96c-.16.68-.75,1.61-1.45,1.19-.82-.49-.34-2.34.54-2.63.74-.24,1.08.68.9,1.44Z"/>
    <path class="cls-2" d="M814.55,497.3c.45.61.52,2.04,0,2.56-1.09.12-1.55-1.19-1.3-2.17.05-.21.31-.61.48-.72s.7.15.82.33Z"/>
    <path class="cls-2" d="M809.9,526.94c.05.66-.73,1.72-1.36,1.35-.94-.56-.31-2.29.41-2.65.18-.09.86.08.87.28l.07,1.03Z"/>
    <path class="cls-2" d="M756.64,453.88c-.9.61-1.36-.49-1.44-.97-.1-.61,0-1.65.82-1.56.89.1,1.28,2.08.61,2.53Z"/>
    <path class="cls-2" d="M763.73,403.9c.42,1,.56,2.14-.09,2.68-1.12-.44-1.42-2.1-.96-3.05.12-.24.92.07,1.05.37Z"/>
    <path class="cls-2" d="M793.04,483.27l-.64.94c-.12.18-.81.12-.92-.1-.37-.75.2-2.22.95-2.43.23-.06.8.21.83.42.04.26-.07.94-.22,1.17Z"/>
    <path class="cls-2" d="M730.94,447.27c-.06.96-.89,1.9-1.57,1.72-.94-.24-.59-1.55.03-1.93l.8-.49c.18-.11.75.44.73.69Z"/>
    <path class="cls-2" d="M807.41,507.3c-.03,1.04-.79,1.97-1.96,1.85-.21-1.06.29-2.17,1.23-2.6.19-.09.74.49.73.75Z"/>
    <path class="cls-2" d="M726.9,455.06c-.1.66-.95,1.49-1.38,1.23-.92-.54-.45-1.9.23-2.23.19-.09.76-.09.95,0s.26.59.2.99Z"/>
    <path class="cls-2" d="M707.81,497.88c.54.51.49,1.44.12,2.31-.11.26-1,.15-1.11-.12-.2-.47-.21-1.58-.02-2.04.09-.2.85-.31,1.01-.16Z"/>
    <path class="cls-2" d="M754.27,404.52c-.04,1-.59,1.62-1.39,1.31-.43-.17-.5-1.28-.22-1.79.18-.31.61-.67.88-.69.34-.03.74.73.72,1.17Z"/>
    <path class="cls-2" d="M717.87,489.39c.05.27-.17.91-.32,1.1-.15.19-.89.05-1.03-.15-.37-.53-.31-1.92.17-2.3.18-.14.92-.05.96.17l.22,1.19Z"/>
    <path class="cls-2" d="M794.24,439.33c-.45.61-1.23.31-1.51-.07-.32-.43-.52-1.2-.03-1.59.28-.23.99-.01,1.19.22.23.27.58,1.12.34,1.44Z"/>
    <path class="cls-2" d="M772.48,470.2c-.37.24-1.14-.44-1.24-.84-.11-.45.12-1.56.53-1.56,1.05,0,1.76,1.72.71,2.4Z"/>
    <path class="cls-2" d="M742.03,438.22c.68.69-.98,2.52-1.71,1.98-.76-.55-.01-1.51.57-1.88.24-.15.95-.3,1.14-.11Z"/>
    <path class="cls-2" d="M686.53,540.81c-.29.55-1.23.16-1.55-.28-.24-.33-.46-1.1.03-1.4.81-.49,2.04.71,1.52,1.68Z"/>
    <path class="cls-2" d="M689.54,538.94c-.32.36-1.2.13-1.5-.29-.23-.33-.33-1.13.17-1.46.29-.19,1.01.1,1.2.35s.38,1.1.13,1.39Z"/>
    <path class="cls-2" d="M690.92,508.77c-.06.52-.25,1.1-.52,1.19s-.91-.28-1-.56c-.17-.58-.05-1.67.37-1.87.66-.32,1.24.44,1.15,1.24Z"/>
    <path class="cls-2" d="M809.27,516.69c-.01.9-.67,1.52-1.29,1.21-.39-.19-.4-1.22-.18-1.69.12-.26.6-.63.85-.63.3,0,.62.69.61,1.11Z"/>
    <path class="cls-2" d="M804.74,518.88c-.16.59-.33,1.01-.5,1.21-.17.19-.99,0-1-.26l-.02-1.14c0-.31.51-.87.81-.91.3-.04.79.8.71,1.11Z"/>
    <path class="cls-2" d="M781.14,466.6c-.43.12-.98-.37-1.06-.66-.11-.42,0-1.14.53-1.35.32-.13.97.39,1.04.7.08.32-.14,1.2-.51,1.3Z"/>
    <path class="cls-2" d="M761.1,441.39c-.34.14-.94-.5-.95-.86,0-.45.52-1.28.94-1.16.78.22,1.02,1.59,0,2.02Z"/>
    <path class="cls-2" d="M790.09,465.94c-.36.01-.68-.82-.62-1.12s.48-1.01.79-1c.38.02.77.67.78.96,0,.41-.26,1.13-.95,1.15Z"/>
    <path class="cls-2" d="M800.55,512.83c-.29.12-.93-.26-1.05-.51s-.14-1.01.06-1.19c.3-.27,1.08-.08,1.27.19.26.36.36,1.24-.29,1.52Z"/>
    <path class="cls-2" d="M810.97,517.43c.24-.2,1.07.12,1.12.41s-.1.87-.34,1.05-.81.14-1-.08c-.25-.28-.18-1.04.22-1.37Z"/>
    <path class="cls-2" d="M776.54,467.47c-.23,0-.65-.53-.65-.74,0-.26.29-.88.54-.95.36-.11.94.43.98.74.04.34-.32.97-.87.95Z"/>
    <path class="cls-2" d="M770.19,463.67c-.26.08-.83-.35-.89-.6-.08-.29.23-1.01.61-1.1.27-.07.86.44.93.71s-.25.88-.64.99Z"/>
    <path class="cls-2" d="M775.23,462.75c.23-.14.95.14,1.02.39.09.3-.09,1.02-.39,1.13-.24.1-.81-.09-1.02-.28-.24-.21-.12-.93.39-1.24Z"/>
    <path class="cls-2" d="M690.51,498.9c.17-.18,1.03.03,1.07.28.05.3-.02.82-.17,1.08s-.98.17-1.12-.1c-.14-.29-.05-.96.22-1.25Z"/>
    <path class="cls-2" d="M765.87,466.91c-.24.1-.79-.27-.86-.47-.09-.25,0-.98.24-1.11.29-.16.86.07.98.32.13.27,0,1.11-.36,1.26Z"/>
    <path class="cls-2" d="M727.6,488.73c-.08.48-.56.95-.85.97-.37.02-.94-.48-.88-.97.81-6.54,2.44-12.71,5.21-18.62l1.87-2.95c.74.62.61,1.36.29,2.12-2.68,6.26-4.57,12.58-5.63,19.45Z"/>
    <path class="cls-2" d="M698.99,540.97c.51,3.75,3.04,7.63,2.13,8.31-.28.21-.9.04-1.26-.28-2.44-5.5-3.88-11.23-3.64-17.25l.73-.79c.19-.21.75.53.79.82l1.25,9.2Z"/>
    <path class="cls-2" d="M787.33,513.29c.15.36-.11,1.13-.38,1.28-.27.15-.98-.19-1.11-.47l-2.84-6.46c-1.15-2.61-3.98-9.23-2.54-9.57.26-.06.72.23,1.02.49l3.7,9.38,2.14,5.35Z"/>
    <path class="cls-2" d="M720.94,512.36c-1.81,2.01-4.71,3.66-4.93,2.21-.05-.3.18-.87.48-1.04,3.54-2.02,5.7-5.2,6.65-9.14l.77-2.53c.05-.17.64-.64.72-.49l.39.76c-.28,3.79-1.7,7.3-4.07,10.23Z"/>
    <path class="cls-2" d="M769.86,500.59c-.71,6.77,2.09,10.32,1.23,11.41-.25.32-1.22.16-1.39-.29-1.41-3.66-1.98-7.39-1.61-11.32.04-.4.65-.93.97-.89.33.04.83.73.8,1.09Z"/>
    <path class="cls-2" d="M759.33,506.01c.25.3.2,1.19-.07,1.32s-.82-.01-1.17-.22c-2.32-2.4-4.23-4.85-5.57-7.92.08-.41.31-1.01.57-1.18.28-.18.9.24,1.09.62,1.37,2.74,3.1,4.95,5.17,7.38Z"/>
    <path class="cls-2" d="M706.26,549.69c.12.32-.15,1.06-.42,1.16-1.56.61-3.04-5.08-1.62-5.07.23,0,.73.32.81.54l1.23,3.36Z"/>
    <path class="cls-2" d="M781.16,549.68c1.4.06-.21,5.18-1.67,4.49-.25-.12-.54-.8-.43-1.06l1.32-3.02c.08-.19.6-.42.78-.41Z"/>
    <path class="cls-2" d="M774.34,522.35c.11.15.08.85.03,1.03-.06.24-.91.24-1.08.02l-2.1-2.71c-.16-.21-.09-.9.11-1.04s.94-.08,1.09.12l1.94,2.57Z"/>
    <path class="cls-2" d="M790.43,549.7c-.12.26-.98.47-1.22.35-.29-.14-.48-.85-.29-1.2l1.42-2.65c.09-.16.65-.33.83-.33.24,0,.64.73.53.96l-1.27,2.87Z"/>
    <path class="cls-2" d="M704.89,554.86c.12.18.11.73.09.92-.02.23-.74.64-.93.5-1.32-.98-2.43-3.42-1.53-3.8.2-.09.87.07.99.26l1.39,2.13Z"/>
    <path class="cls-2" d="M783.04,546.76c-.03.26-.46.7-.68.84s-1.08-.15-1.1-.42c-.13-1.44.48-3.64,1.36-3.6.24,0,.73.54.7.79l-.28,2.39Z"/>
    <path class="cls-2" d="M725.59,493.66c1.18-.29.93,4.02-.28,4.43-.93.32-1.17-4.08.28-4.43Z"/>
    <path class="cls-2" d="M709.34,544.99c.09.3-.25,1.06-.51,1.13-.26.07-.96-.14-1.09-.4-.68-1.46-.73-3.31.11-3.46.21-.04.76.29.83.51l.67,2.23Z"/>
    <path class="cls-2" d="M763.66,510.68c.17.17.19.95,0,1.09s-.69.27-.94.19c-1.13-.35-2.35-1.95-1.63-2.81.14-.17.83-.15.99,0l1.58,1.53Z"/>
    <path class="cls-2" d="M788.41,543.83c-.04.27-.68.63-.94.59-.31-.05-.73-.69-.67-1.01l.43-2.1c.05-.24.52-.61.76-.66s.78.54.75.79l-.33,2.4Z"/>
    <path class="cls-2" d="M793.22,543.23c-.06.29-.86.65-1.11.56-.3-.1-.71-.75-.6-1.06l.77-2.14c.07-.18.59-.41.78-.41.23,0,.68.54.63.78l-.47,2.26Z"/>
    <path class="cls-2" d="M736.2,463.42c-.12.19-.73.35-.94.32-.26-.04-.65-.76-.54-1.03.64-1.63,1.65-2.65,2.32-2.01.2.19.35.88.19,1.12l-1.03,1.6Z"/>
    <path class="cls-2" d="M788.7,527.28c-.05.22-.76.56-.95.45-1.1-.59-.7-3.33.23-3.68.64-.24,1.2,1.03.72,3.23Z"/>
    <path class="cls-2" d="M788.68,520.44c-.07.23-.74.53-.92.44s-.62-.43-.65-.64l-.24-1.86c-.03-.2.24-.68.41-.79.21-.14.91.08,1.06.29.43.62.57,1.78.33,2.56Z"/>
    <path class="cls-2" d="M708.64,554.32c.41.48.77,1.92-.06,2.07-1.17.21-2.03-1.78-1.84-2.76.05-.24.87-.51,1.02-.33l.87,1.02Z"/>
    <path class="cls-2" d="M697.34,524.49c.87-.34,1.41,3.69-.36,3.68-.9-.69-.93-3.18.36-3.68Z"/>
    <path class="cls-2" d="M783.28,539.3c.03.17-.29.66-.43.74-.19.1-.8-.11-.91-.3-.61-1.05-.65-2.89.23-3.2.17-.06.72.26.75.44l.37,2.32Z"/>
    <path class="cls-2" d="M780.84,493.75c.08.27-.04,1.01-.11,1.24-.08.28-.74.56-1,.42-.92-.5-.83-2.32-.3-2.88.2-.21,1.01-.19,1.07.04l.34,1.18Z"/>
    <path class="cls-2" d="M765.85,504.26c.53,1.49.26,3.09-.45,3.12-.22.01-.79-.36-.8-.58l-.08-2.24c0-.17.26-.58.4-.68.18-.13.85.17.93.39Z"/>
    <path class="cls-2" d="M787.13,547.78c-.15,1.42-.85,2.56-1.6,2.31-.75-.26-.62-1.66.3-2.88.12-.16.72-.3.88-.19s.44.57.42.76Z"/>
    <path class="cls-2" d="M708.05,534.39c.93.78.69,3.34-.22,3.52-.2.04-.68-.29-.75-.49-.33-.9-.26-2.64.97-3.02Z"/>
    <path class="cls-2" d="M767.05,514.17c.09.3-.79.83-1.04.67-.66-.43-1.32-1.21-1.49-1.79-.08-.26.22-.93.46-.96.76-.11,1.68.79,2.07,2.09Z"/>
    <path class="cls-2" d="M752.37,494.25c.06.22-.18.78-.38.84s-.8-.07-.93-.23c-.63-.75-.86-2.34,0-2.9.19-.13.79.25.84.47l.46,1.81Z"/>
    <path class="cls-2" d="M772.69,515.24c.33.63.62,1.7-.21,1.82-1.05.15-1.99-1.64-1.27-2.5.4-.47,1.16.08,1.48.68Z"/>
    <path class="cls-2" d="M770.01,517.88c-.37.79-1.32.09-1.66-.29-.37-.4-.81-1.36-.22-1.75.89-.59,2.35,1.06,1.88,2.04Z"/>
    <path class="cls-2" d="M740.98,455.38c.55.69-1.39,3.05-2.1,2.23-.63-.73.34-2.17,1.14-2.42.24-.08.82.01.96.19Z"/>
    <path class="cls-2" d="M774.69,485.88c-.11.17-.81.27-.98.18-.22-.11-.46-.68-.37-.92.54-1.36,1.81-2.03,2.22-1.5.13.17.19.64.08.82l-.94,1.42Z"/>
    <path class="cls-2" d="M698.95,520.15c.06.57-.57,1.65-1.18,1.38-1.01-.45-.46-2.28.22-2.65.19-.1.84.04.86.24l.1,1.04Z"/>
    <path class="cls-2" d="M770.55,495.1c-.02.96-.27,1.88-1.27,1.69-.55-.1-.59-1.48-.2-2.05.16-.23.53-.53.74-.61.27-.11.75.58.74.97Z"/>
    <path class="cls-2" d="M772.69,489.23c0,.73-.63,1.77-1.42,1.22-.53-.37-.15-1.8.32-2.17.18-.14.98-.23,1.04-.02.06.2.07.43.06.97Z"/>
    <path class="cls-2" d="M779.92,489.52c-.56.18-.95-.71-.95-1.14,0-.41.34-1.38.85-1.32.95.12,1.14,2.12.1,2.46Z"/>
    <path class="cls-2" d="M703.04,533.77l-.19,1.15c-.04.26-.86.21-1.05.01-.5-.52-.41-1.83.06-2.24.14-.12.8-.21.89-.06.12.21.34.82.28,1.14Z"/>
    <path class="cls-2" d="M751.26,487.96c.22.37-.13,1.57-.53,1.61s-.98-.47-1-.77c-.03-.37.11-1.1.32-1.39.09-.12.71-.31.79-.18l.43.72Z"/>
    <path class="cls-2" d="M782.01,533.99c-.7.16-1.16-.42-1.26-.75-.11-.34-.05-1.25.27-1.35.47-.15,1.15.16,1.28.47.16.39.11,1.54-.29,1.63Z"/>
    <path class="cls-2" d="M794.74,535.41c.19.94-.25,1.84-1.12,1.63-.5-.12-.61-1.51-.19-1.84l.62-.49c.17-.13.64.46.69.7Z"/>
    <path class="cls-2" d="M702.98,541.01c-.37.04-.93-.43-.99-.69-.08-.32.15-1.14.45-1.26.47-.19,1.13.21,1.22.57.11.43-.09,1.31-.68,1.38Z"/>
    <path class="cls-2" d="M703.89,544.37c-.45.09-1.06-.25-1.17-.52s-.09-1.01.16-1.16c.41-.24,1.29-.04,1.4.35.1.38-.04,1.26-.4,1.33Z"/>
    <path class="cls-2" d="M709.39,530.41c-.11.26-.32.62-.5.74-.22.15-.79.07-.95-.14-.16-.21-.13-.97.03-1.19.16-.23.81-.48,1.06-.39.25.09.46.73.35.99Z"/>
    <path class="cls-2" d="M761.67,501.61c.19-.17,1.01-.02,1.07.23.08.3.03.85-.14,1.11s-.98.14-1.13-.12-.06-.98.2-1.21Z"/>
    <path class="cls-2" d="M759.79,566.15c2.27-1.74,4.45-3.4,6.14-5.6,2.15-2.79,3.34-5.86,4.35-9.24.09-.28.51-.72.78-.79.37-.1.79.62.74,1.13-1.13,6.73-5.31,12.33-11.11,15.85l-1.05-.18c-.24-.04-.04-1.03.15-1.17Z"/>
    <path class="cls-2" d="M733.62,567.24c4.63,2.66,9.7,2.18,10.16,3.46.11.29-.49,1-.86.96-5.75-.52-11.13-2.52-15.56-6.14-.27-.22-.52-.88-.45-1.17.08-.33.94-.43,1.29-.23l5.42,3.12Z"/>
    <path class="cls-2" d="M758.93,520.33c1.99,1.73,7.54,6.77,5.74,7.31-.29.09-.85,0-1.24-.12-2.13-2.55-4.27-4.72-6.87-6.78l-4.57-4.31c-.25-.23-.09-1.06.13-1.23s.84-.05,1.07.15l5.74,4.98Z"/>
    <path class="cls-2" d="M739.26,522.35c.12.4-.27,1.28-.57,1.33-.29.06-.83-.28-.94-.59l-2.39-7.15c-1.19-3.57-1.36-8.59.13-8.24.27.06.65.64.65.92-.02,2.48.41,4.65,1.1,6.96l2.02,6.77Z"/>
    <path class="cls-2" d="M747.07,567.27c-3.97.52-7.65-.51-11.15-2.28-.19-.42-.37-1.03-.17-1.26s.88-.25,1.26-.19c3.12,1.61,6.3,2.35,9.84,1.99.41.11,1,.47,1.06.78s-.44.86-.84.96Z"/>
    <path class="cls-2" d="M757.35,555.13c2.67,1.48-9.6,8.73-10.05,5.84-.05-.33.44-.94.83-1,6.35-.97,7.91-5.57,9.22-4.84Z"/>
    <path class="cls-2" d="M740.21,527.21c.71,5.2-2.31,10.05-3.4,9.02-.22-.21-.3-.96-.1-1.25,3.09-4.55.89-8.5,2.46-8.75.36-.06.99.52,1.05.98Z"/>
    <path class="cls-2" d="M759.09,562.13c-2.56-.98,1.61-2.53,4.38-7.89.15-.29.94-.51,1.22-.41,1.73.63-2.79,6.41-5.6,8.31Z"/>
    <path class="cls-2" d="M769.73,534.56c-.27.35-1.01.56-1.44.47l-2.03-3.6c-.14-.25,0-.93.2-1.12.91-.88,2.62,1.82,3.27,4.26Z"/>
    <path class="cls-2" d="M766.16,546.16c1.67-.93.82,5.6-.57,5.14-.22-.07-.51-.64-.48-.9l.4-3.37c.03-.27.43-.74.66-.87Z"/>
    <path class="cls-2" d="M723.6,559.91c.15.19.18.81.08.98-.72,1.25-4.37-2.8-2.93-3.63.23-.14.84,0,1.02.23l1.84,2.41Z"/>
    <path class="cls-2" d="M720.02,553.98c.08.19-.14,1.01-.33.97l-.83-.17c-1.05-1.33-1.86-3.12-1-3.9.18-.17.91.1,1.02.36l1.14,2.75Z"/>
    <path class="cls-2" d="M728.65,539.63c.49.65-1.76,1.54-3.91.14-.19-.12-.39-.68-.36-.89.03-.21.64-.52.86-.47l2.88.71c.14.04.45.39.54.51Z"/>
    <path class="cls-2" d="M746.91,506.66c.1.19-.11.83-.28.95-.97.69-2.79-2.4-2.03-3.52.14-.21.96-.06,1.08.17l1.23,2.4Z"/>
    <path class="cls-2" d="M732.29,562.73c-1.43-.69-2.71-1.77-2.16-2.64.14-.22.89-.35,1.11-.18l1.91,1.48c.16.12.2.79.1.97-.12.22-.71.49-.95.37Z"/>
    <path class="cls-2" d="M732.16,540.18c-.25,0-.77-.43-.82-.64s.15-.78.36-.88l2-.95c.21-.1.83.05.97.23.59.77-.89,2.2-2.52,2.24Z"/>
    <path class="cls-2" d="M753.4,566c-.24.13-.99-.21-1.08-.45-.11-.3.14-1.02.43-1.16l1.92-.91c.28-.13.82-.09,1.03.09s.16,1.05-.09,1.19l-2.2,1.24Z"/>
    <path class="cls-2" d="M748.86,571.64c-.26.05-.79-.48-.79-.71,0-.23.24-.88.46-.93l2.37-.44c.21-.04.67.44.68.65.02.26-.27.92-.52.97l-2.2.45Z"/>
    <path class="cls-2" d="M772.18,543.8c.43,1.39.27,2.82-.52,2.97-.28.05-.92-.38-.93-.67l-.05-2.1c0-.2.38-.62.56-.7.23-.1.87.27.94.51Z"/>
    <path class="cls-2" d="M750.1,511.64c.37.45.73,1.59.02,1.74-1.21.25-2.77-1.89-1.92-3.04.13-.18.78-.07.92.1l.98,1.19Z"/>
    <path class="cls-2" d="M761.04,549.93c-.37,1.94-1.49,2.66-1.93,2.24-.85-.82.24-3.48,1.38-3.18.24.06.6.69.55.94Z"/>
    <path class="cls-2" d="M761.84,544.84c0,.17-.43.57-.58.63-.2.08-.81-.27-.84-.48-.22-1.54-.14-2.88.86-3.18.19-.06.7.41.69.61l-.13,2.42Z"/>
    <path class="cls-2" d="M766.42,541.25c-.14.31-1.12.02-1.2-.28l-.56-1.96c-.07-.23.33-.88.56-.95.97-.28,1.85,1.72,1.2,3.19Z"/>
    <path class="cls-2" d="M737.21,502.11c-.02,1.83-.92,3.09-1.44,2.74-1-.68-.48-2.66.53-3.27.21-.12.91.28.91.53Z"/>
    <path class="cls-2" d="M771.07,540c-.84.57-1.53-.38-1.59-1.12l-.09-1.15c-.02-.29.81-.43,1.1-.41.69.04,1.28,2.22.59,2.68Z"/>
    <path class="cls-2" d="M739.92,496.62c-.15.81-.92,2-1.57,1.8-1.08-.33-.49-1.88.12-2.47.27-.27.69-.48.95-.46s.57.73.5,1.12Z"/>
    <path class="cls-2" d="M763.38,533.66c-1.06.44-2.36-1.83-1.68-2.65,1.03-.54,2.71,1.74,1.68,2.65Z"/>
    <path class="cls-2" d="M743.68,560.82c.11.54-1.1.79-1.57.7-.42-.08-1.31-.53-1.12-1.14.32-.97,2.45-.77,2.69.44Z"/>
    <path class="cls-2" d="M728.02,557.55c-1.43.21-2.2-1.23-1.77-2.26.37-.21,1.19.13,1.49.49.34.41.42.96.28,1.77Z"/>
    <path class="cls-2" d="M705.26,436.33c.42,4.84,2.58,7.8,1.7,8.77-1.84,2.01-4.32-9.1-2.52-9.48.26-.05.8.44.83.71Z"/>
    <path class="cls-2" d="M709.83,452.74c1.89-1.08,3.97,8.78,2.37,9.35-.28.1-.83-.43-.89-.8-.47-2.56-1.07-5.13-1.83-7.52-.1-.31.13-.91.35-1.04Z"/>
    <path class="cls-2" d="M708.86,450.24c-.49.4-1.3-.51-1.48-.95-.21-.51-.36-1.62.45-1.76.99-.18,2,1.91,1.03,2.71Z"/>
    <path class="cls-2" d="M705.58,431.26c0,.9-.42,1.74-1.25,1.53-.39-.09-.63-1.02-.57-1.46.07-.49.43-1.23,1.08-1.35.35-.07.74.83.74,1.28Z"/>
    <path class="cls-2" d="M717.1,448.87c-1.37.27-2.16-2.87-1.46-2.86,1.47.03,2.14,1.83,1.46,2.86Z"/>
    <path class="cls-2" d="M711.4,440.35c-.37.38-1.22.08-1.47-.31-.22-.35-.34-1.17.05-1.49.27-.22,1.08.11,1.31.36s.41,1.14.11,1.43Z"/>
    <path class="cls-2" d="M713.57,445.11c-.39.21-1.18-.27-1.35-.59s-.23-1.27.09-1.43c.48-.25,1.15.24,1.29.58.14.33.27,1.28-.04,1.45Z"/>
    <path class="cls-2" d="M713.14,450.59c-.43.28-1.07-.09-1.22-.43s.03-1.1.46-1.2c.27-.06.76.21.91.42.15.21.07,1.06-.15,1.21Z"/>
    <path class="cls-2" d="M736.99,399.34c.36,1.73.17,3.8-1.02,3.94-.28.03-.8-.49-.78-.82.13-2.7-.61-5.21-1.82-7.64-.91-1.82-1.68-4.41-.83-5.76.12-.2.86-.07.91.19.27,1.52.77,3.34,1.52,4.72.94,1.76,1.63,3.4,2.03,5.37Z"/>
    <path class="cls-2" d="M728.23,402.25c.02.26-.47.85-.72.85-1.02.02-1.35-1.61-1.05-3.18.05-.24.59-.63.83-.66s.76.44.78.7l.17,2.28Z"/>
    <path class="cls-2" d="M731.64,403.83c.88-.5,1.89,2.91.65,3.72-.18.12-.79-.16-.89-.36-.51-1.07-.45-2.97.23-3.36Z"/>
    <path class="cls-2" d="M736.77,407.24l-.53,1.32c-.11.27-1.03.35-1.21.11-.43-.57-.15-1.91.44-2.46.23-.22.77-.35.98-.21s.43.96.32,1.24Z"/>
    <path class="cls-2" d="M728.86,394.89c.02.33-.38.96-.58,1.15s-.92.09-1.08-.18c-.41-.67.04-2.11.77-2.45.2-.09.81-.06.82.14l.07,1.34Z"/>
    <path class="cls-2" d="M733.04,386.58c-.36-.06-.7-.86-.63-1.15s.49-.9.8-.94c.47-.05.94.56.95.89.02.51-.29,1.32-1.13,1.19Z"/>
    <path class="cls-2" d="M731.44,401.37c-.6.08-1.01-.53-1.03-.91-.03-.46.27-1.11.9-1.08.29.01.71.56.75.85s-.29,1.1-.62,1.14Z"/>
  </g>
</svg>