<?xml version="1.0" standalone="no"?>
<!DOCTYPE svg PUBLIC "-//W3C//DTD SVG 1.1//EN" "http://www.w3.org/Graphics/SVG/1.1/DTD/svg11.dtd">
<svg xmlns="http://www.w3.org/2000/svg" id="Layer_1" data-name="Layer 1" version="1.1" viewBox="0 0 453.3 299.8" width="453.29998779296875" height="299.79998779296875">
  <defs>
    <style>
      .cls-1, .cls-2 {
        fill: #000;
        stroke-width: 0px;
      }

      .cls-2 {
        display: none;
      }
    </style>
  </defs>
  <g>
    <path class="cls-2" d="M248.1,68.8c.5-5.2-1.2-12.9-4.6-17.6-.6,0-.9,0-1.5.3-.6-1.5-3.8-8.8-5.6-10.1-.5,0-.7,0-1.2,0-.6-.9-5.4-7.2-8.7-9.4-3,2.1-7.5,6.6-8.9,9.4-.5-.3-1-.5-2.1-.7-2,2.9-4,8.4-4.5,10.7-.4-.2-.7-.2-1.5-.3-3,5.1-4.8,10.2-4.5,17.4-1.2.1-2.7.5-3.6.9.4,9.9,6.4,18,15.1,20.8,3.9,1.3,7.9,1,12,1.1,11.8.2,20.8-7.5,22.6-19.1.1-.9.2-1.9.3-2.8-.9-.3-2.5-.6-3.6-.6ZM244.2,68.9c-2.5.4-6.8,2-8.8,3.1-.5-1.6-3.7-5.8-4.9-6.7,2.2-3.6,7.4-8.5,11.2-9.4,1.8,1.6,3.4,9.9,2.5,13ZM226.6,64.2c-1.4-2.4-4.7-6.2-5.9-7.2.5-1.4,4.1-6.8,6-8.2,1.6,1.2,5,5.8,6,8.3-1.9,1.5-4.5,4.7-6,7.2ZM235.6,45.7c.2.1,2.5,7,2.3,7.2s-1.6,1.3-2.3,1.7c-1.6-2.2-3.1-4.4-4.9-7,1.5-.7,4.2-1.8,4.9-2ZM226.6,37.1c1.2.7,4.6,5,5.1,6.1-1.4.6-3.2,1.9-3.2,1.9,0,0-1.5-1.1-1.8-1.1s-1.8,1.1-1.8,1.1c0,0-2.5-1.7-3.3-2,.6-1.4,3.3-5,4.9-6ZM217.6,45.5c.3-.1,3.7,1.5,4.9,2.2-1.7,2.4-3.2,4.6-4.8,6.8-1-.3-2.2-1.1-2.6-1.5,0-1.4,1.6-6.2,2.4-7.4ZM211.2,55.8c2.7,0,11,6.8,11.4,9.5-1.5,1.5-4,5-4.9,6.7-1.5-1-6.8-3.1-8.7-3.1-1-4.7.3-9.5,2.1-13.2ZM205.7,72.8c8.3-1.3,18.7,7.2,18.7,15.1-8.1,1.3-18.8-7.3-18.7-15.1ZM226.7,81.9c-.7-2.6-3.9-6.5-5.5-7.7.5-1.9,3.9-6.5,5.5-7.5,1.2.4,5,5.4,5.5,7.5-1.8,1.4-4.7,4.9-5.5,7.6ZM228.8,87.9c.9-8.4,9.4-16,18.6-15.1,1.1,7.1-10.6,16.6-18.6,15.1Z"/>
    <rect class="cls-2" x="138.3" y="83.1" width="52.5" height="3"/>
    <rect class="cls-2" x="262.7" y="83.1" width="52.4" height="3"/>
    <path class="cls-1" d="M453.3,94.2v-3.2h-72.8v-16.8L226.7,0,72.8,74.1v16.8H0v3.2h84.3v6.9H0l24.8,48.4L0,198.8h84.3v6.9H0v3.2h72.8v16.8l153.9,74.1,153.9-74.1v-16.8h72.8v-3.2h-84.3v-6.9h84.3l-24.8-49.3,24.8-48.5h-84.3v-6.9h84.3ZM374,208.9v12.8l-147.3,70.8-147.3-70.8v-12.8h4.9v8.2l142.4,68.6,142.4-68.6v-8.2h4.9ZM365.8,215.6l-139.1,66.8-139.1-66.9v-16.7h278.3v16.8ZM442.7,107.7l-21.3,41.8,21.4,42.6H10.6l21.4-42.7-21.4-41.8h432ZM87.5,101v-16.8L226.7,17.4l139.1,66.9v16.7H87.5ZM226.7,14.1L84.3,82.7v8.2h-4.9v-12.8L226.7,7.3l147.3,70.8v12.8h-4.9v-8.2L226.7,14.1Z"/>
    <g>
      <path class="cls-1" d="M213.5,43s0-.2.2-.4c.4-1.1,1-2,1.9-2.8,1.5-1.3,3.1-2.4,4.3-4.1,0-.1.3-.2.4-.2.1,0,.2.3.3.4,0,.4.1.7.2,1,1.5-1,3-2,4.5-3.1.4-.3.7-.9,1.1-1.3.1-.1.3-.3.4-.4,0,0,.3.2.4.3.4.5.7,1,1.2,1.4,1.4,1,2.9,2,4.4,3,0-.3,0-.6.2-1,0-.2.1-.4.3-.4,0,0,.3,0,.4.2,1.1,1.6,2.6,2.7,4.1,3.9,1.2.9,1.9,2.1,2.2,3.4.4,0,.7,0,.9.2.3.2.6.4.9.7.8.9,1.5,1.9,2.2,2.8.8,1,1.2,2.2,1.4,3.5,0,.6.2,1.1.7,1.7,1.3,1.5,2.1,3.3,2.7,5.3.5,1.8.5,3.6.4,5.5,0,.3,0,.7,0,1,0,.6,0,1.1.3,1.7.4.6.5,1.5.6,2.3.5,4.3-.7,8.3-3.1,11.9-.6.9-1.2,1.7-1.9,2.6.1,0,.2,0,.4,0,.5,0,.6.4.4.8-.1.2-.3.4-.4.6-2.4,2.9-5.5,4.8-9.2,5.7-2.1.5-4.2.9-6.4,1.4,0,0,0,0,0,0-1,.3-1.9.8-2.9.8-.9,0-1.9-.6-2.8-.8-3-.5-6-1.2-9-2.2-2.8-1-4.9-2.9-6.8-5-.6-.7-.5-1,.5-1.3-1.8-2-3.2-4.3-4-6.8-.8-2.4-1.3-4.9-1-7.5.1-1,0-2.1,1-2.8,0,0,0-.4,0-.6,0-2.1-.3-4.2.1-6.3.4-2.3,1.4-4.4,2.9-6.2.4-.4.6-.8.6-1.4.1-2.5,1.6-4.2,3.1-6,.4-.5.9-.9,1.4-1.3.2-.1.5,0,.8-.1ZM236.5,66.1c0,0-.2,0-.2-.1-.2.2-.3.6-.6.7-1.9,1.4-3.7,2.7-5.6,4.1-1.2.8-2.3,1.7-3,3-.2.4-.5.4-.7,0-.8-1.4-1.9-2.3-3.2-3.1-1.7-1.2-3.3-2.3-5-3.5-.5-.3-.8-.8-1.3-1.2-.6,1.9-1.1,3.8-1.8,5.6-.9,2.7-.5,5.1,1,7.4.1.2.3.2.5.4,0-.3,0-.4,0-.6,0-.3-.5-.8,0-1,.5-.2.4.4.6.7.4,1,.4,1,1.4,1-.1-.6-.3-1.2-.4-1.8,0-.2.2-.4.2-.6.1.1.3.3.4.4.2.6.3,1.2.5,1.8,0,.2.2.4.3.4,1.2.6,2.3,1.1,3.5,1.6.2-.6.4-1.3.6-2,0,0,0-.2,0-.2-.3-.6-.6-1.1-.8-1.7,0-.2-.1-.6,0-.7.4-.2.5.2.6.4.2.5.4.9.7,1.4.3-.3.6-.6.9-.9-.3-.7-.7-1.4-.9-2.1,0-.2,0-.5,0-.7.2.1.5.2.6.4.3.6.6,1.3.9,2,.6-.6,1.2-.5,1.8,0,.4-.8.7-1.5,1-2.2,0-.1.4-.2.5-.2,0,.2.1.4,0,.6-.3.8-.7,1.5-1,2.3.3.3.6.6.9.9.3-.5.5-1.1.8-1.6,0-.1.3-.1.5-.2,0,.2.2.4.1.5,0,.3-.2.5-.4.7-.2.5-.6,1-.6,1.4,0,.7.4,1.5.6,2.1.8-.4,1.5-1.1,2.4-1.3,1.3-.3,1.6-1.1,1.8-2.2,0-.1,0-.3,0-.4.1-.2.3-.4.4-.5,0,.2.3.5.2.7,0,.6-.2,1.1-.4,1.7.8.1,1.2-.2,1.3-.9,0-.2,0-.4.2-.6,0-.1.3-.2.5-.3,0,.2.2.3.2.5,0,.3-.2.7-.3,1.2.3-.2.6-.2.7-.4,1.1-1.7,1.9-3.6,1.4-5.6-.5-2.5-1.4-4.9-2.1-7.4ZM244.6,82.9s0,0,0,0c-.1,0-.3,0-.4,0-2.7-.2-5.3.5-7.6,2-.7.5-1.5.9-2.2,1.3-.1,0-.4,0-.5-.1,0-.2,0-.3.2-.5.1-.1.3-.2.5-.3.6-.4,1.3-.6,1.7-1.1,1-1.4,1.8-2.8,2.6-4.3,0,0-.1,0-.2-.1-.6.1-1.2.2-1.8.3-1.2.3-2.5.4-3.7.8-1.8.6-3.2,1.7-4.2,3.3,0,.2-.3.2-.5.3,0-.2-.1-.5,0-.6.2-.4.4-.7.6-1,.1-.2.2-.4.2-.6,0-1-.1-2-.7-2.8-1.7-2.2-2.2-2.2-3.8,0-.9,1.2-1.3,2.7,0,4.1,0,0,.2.2.2.3,0,.2,0,.4,0,.7-.2-.1-.5-.2-.6-.3-1-1.6-2.4-2.8-4.2-3.3-1.8-.5-3.6-.8-5.7-1.2.5,1,.9,1.9,1.4,2.7.6,1.2,1.5,2.3,2.8,2.8.2,0,.4.2.5.3.1.1.2.4.3.5-.2,0-.4,0-.7,0-.2,0-.3-.2-.5-.3-1-.6-1.9-1.1-2.9-1.7-2.1-1.2-4.4-1.4-6.8-1.2,2.2,2.8,5,4.5,8.3,5.4-.9-.7-1.9-1.4-2.8-2.1-.2-.2-.3-.5-.5-.8.3,0,.6,0,.9,0,.1,0,.2.1.3.2.9.4,1.9.9,2.8,1.3,1.4.5,2.8.8,4.2,1.2,0,0,0-.1.1-.2-.1-.2-.2-.4-.4-.6-1-1.2-2-2.5-3-3.7-.1-.2-.1-.4-.2-.6.2,0,.5,0,.7.1.8.7,1.6,1.4,2.5,2.1,1,.8,2,1.5,3.1,2.3.2-.4.3-.6.4-.8.7-1.4.8-2.9,1-4.4,0-.2.2-.4.4-.6.1.2.4.4.4.6.2.8.2,1.6.4,2.4.2.9.6,1.8.9,2.7.5-.3.8-.4,1.1-.7,1.5-1.2,3-2.4,4.6-3.6.2-.1.5-.1.7-.2,0,.2,0,.5-.2.7-1,1.2-2,2.5-3,3.7-.1.2-.2.4-.4.6.3,0,.5,0,.7,0,2.4-.4,4.7-1.2,6.8-2.4.3-.1.8-.2.9,0,.3.4-.2.6-.5.8-.2.2-.4.3-.6.4-.8.5-1.5,1.1-2.3,1.7,3.4-.8,6.2-2.6,8.3-5.3ZM230.2,70c.2-.3.6-.6.6-.8,0-.6-.2-1.2-.3-1.8,0-.2,0-.4,0-.6.2.1.4.2.5.4.1.3.2.6.3.9,0,.3.1.6.2.9,1.3-.7,1.4-.9.9-2.2-.2-.6-.5-1.2-.7-1.8,0-.2,0-.4,0-.6.2.1.5.2.5.4.4.9.8,1.9,1.2,3,.4-.4,1-.8,1-1.2,0-1.7-.4-3.2-1.7-4.5-.5-.5-.9-1.1-1.4-1.6-.6-.7-1.1-1.3-1.7-1.9-1-1-2.1-1.9-3.1-2.9-.5.5-1.1,1.2-1.8,1.8-1.3,1.1-2.5,2.2-3.4,3.6-.2.3-.4.6-.7.8-1.2,1.1-1.8,2.4-1.9,4-.1,1.1,0,1.3,1,1.8.4-.9.7-1.9,1.1-2.8,0-.2.4-.3.5-.4,0,.2.1.5,0,.7-.2.7-.6,1.3-.8,2-.4,1.1-.2,1.4,1,1.9,0-.2,0-.5.1-.7.1-.4.2-.8.4-1.2,0-.1.3-.1.5-.2,0,.2.1.3,0,.5-.1.5-.2,1-.4,1.5-.2.6,0,.9.6,1,.2-.4.3-.8.5-1.1,0-.1.3-.2.5-.3,0,.2.2.4.1.5,0,.3-.3.7-.4,1,0,.1,0,.4.1.5.9.8,1.8,1.6,2.6,2.3.6-.5,1.2-1.1,1.9-1.6,1-.9,1-.9.6-2.1,0-.2,0-.4.1-.5.2,0,.4.1.5.2.2.4.3.8.6,1.3ZM226.6,43.3c-1,.7-2.1,1.5-3.2,2.2-1.8,1.2-3.1,2.8-3.6,5-.2.8,0,1.3.9,1.7.2-.7.4-1.5.7-2.2,0-.2.4-.3.5-.5,0,.2.1.5,0,.7-.2.7-.4,1.5-.6,2.2-.2.8,0,1.2.8,1.6.1,0,.2.2.3.3.4,1,.7,2,1.1,3.1,1-.9,2.1-1.6,2.6-2.9,0-.2.3-.3.4-.5.2.2.4.3.5.5.5,1.2,1.5,2,2.6,2.8.4-1.1.7-2.1,1.1-3.1,0-.1.3-.2.4-.3.5-.2.9-.9.7-1.3-.2-.8-.5-1.7-.8-2.5,0-.1,0-.3.1-.5,0,0,.3,0,.4,0,.1.1.2.3.2.4.2.7.5,1.4.7,2.1.9-.6,1.1-1.3.7-2.3-.6-1.9-1.8-3.3-3.4-4.4-1.1-.8-2.2-1.6-3.3-2.3ZM245.6,52.8c-.4.8-.7,1.6-1.2,2.2-1.3,1.6-2.6,3.2-4,4.7-1.4,1.5-2.5,3.1-2.7,5.2,0,.6,0,1.2,0,1.7-.2,1,.3,1.8.6,2.7.4-1.2.7-2.4,1-3.6,0-.2.3-.3.5-.4,0,.2.2.4.1.6-.3,1.5-.7,3-1,4.6,0,.3,0,.7,0,1.1.7-.4,1-.8,1-1.4,0-.4.1-.8.2-1.2,0-.1.3-.2.4-.4,0,.2.2.3.2.5,0,.3,0,.7-.2,1.1.8-.4,1.4-.7,1.6-1.5.1-.3.3-.7.5-1,0-.1.3-.2.4-.2,0,.2.2.4.2.5,0,.3-.2.6-.4.9,1.3-.2,1.4-.3,1.9-1.4.3-.6.5-1.2.7-1.8,0-.2.3-.3.5-.4,0,.2.2.4.1.7,0,.3-.2.5-.3.8-.2.4-.3.8-.5,1.3,1.2-.4,2-1,2.5-1.7.1-.1.2-.3.2-.5,0-.5,0-1,0-1.6,0-1.9,0-3.9,0-5.8-.2-2.1-1.1-4-2.3-5.8ZM215.1,69.3c.7-1.3.7-2.5.6-3.9,0-1.3-.4-2.6-1.1-3.7-.7-.9-1.4-1.8-2.2-2.6-1.9-1.9-3.7-3.8-4.6-6.4,0,0-.1,0-.1.1-1.3,2-2.3,4.1-2.4,6.5-.1,2.2,0,4.5,0,6.7,0,.1,0,.2.2.3.6.8,1.5,1.3,2.5,1.7-.3-.8-.6-1.5-.8-2.1,0-.2,0-.4.1-.6.2.1.4.2.5.4.3.7.6,1.3.8,2,.3.9,1,1,1.9,1.2-.2-.4-.3-.6-.4-.9,0-.2,0-.4,0-.5.2,0,.4.1.5.2.2.3.4.6.5,1,.2.8.9,1.1,1.6,1.4,0-.4-.2-.7-.2-1.1,0-.2.1-.4.2-.6.2.1.4.3.4.4.1.4.2.9.2,1.3,0,.6.4.9.9,1.2.5-.7.2-1.3,0-2-.2-1.2-.6-2.3-.8-3.5,0-.2,0-.6.1-.7.4-.2.4.2.5.5,0,.1,0,.2.1.4.3,1,.5,2,.8,3.1ZM215.5,83.2c-.2-.5-.5-.9-.8-1.5-.5-1.1-1.1-2.2-2.2-2.9-.4-.3-.8-.6-1.2-1-.1-.1-.1-.4-.2-.5.2,0,.4,0,.5,0,.4.3.8.6,1.1.9.6.6,1.4.7,2.2.9,0-.7-.6-.7-.9-.9-.6-.4-1.1-.9-1.6-1.4-.1-.1,0-.4-.1-.6.2,0,.4,0,.6,0,.4.3.8.6,1.2.9,0-.7-.2-1.2-.8-1.6-.3-.2-.6-.5-.8-.8-.1-.1,0-.4-.1-.5.2,0,.4,0,.6,0,.2.1.4.4.7.6,0-.6,0-1.2.1-1.7.3-.8-.1-1.3-.7-1.7-1.5-1.2-3.3-1.9-5.1-2.5-1.4-.5-2.6-1.2-3.5-2.5,0,0-.1,0-.2,0,0,0,0,.1,0,.2-.5,2.5-.2,4.9.4,7.3.7,2.7,2,5.1,3.8,7.2.6.7,1.3,1.2,2.4,1-.5-.6-1-1.2-1.5-1.7-.1-.1,0-.4,0-.6.2,0,.4,0,.6.2.6.7,1.2,1.4,1.9,2.2,0,0,.2.1.3.2,1.1.3,2.2.6,3.3,1ZM238,79.2c.9-.3,1.7-.3,2.4-.9.3-.3.7-.6,1.1-.9.1,0,.3,0,.5,0,0,.2,0,.4-.1.5,0,.1-.3.2-.4.3-.7.7-1.6,1.3-2.2,2.1-.7.9-1.1,2-1.6,3,0,0,.2,0,.2,0,1-.3,2.1-.7,3.1-1,.1,0,.3-.2.4-.3.6-.7,1.2-1.4,1.9-2.1,0,0,.3,0,.4-.1,0,.2.2.4.1.5-.2.3-.4.6-.6.8-.3.4-.6.7-1,1.1,1.5.2,2.2-.6,2.9-1.6,2.2-2.9,3.6-6.2,3.9-9.9.1-1.4.1-2.8-.3-4.1-.7.6-1.3,1.2-2,1.6-.7.5-1.6.7-2.4,1.1-.6.3-1.2.4-1.7.7-1.1.6-2.1,1.3-3.1,2-.1,0-.3.3-.3.4,0,.8.2,1.6.3,2.5.3-.2.5-.5.7-.6.1,0,.4,0,.6,0,0,.2,0,.4-.1.5-.3.3-.6.7-1,.9-.5.4-.5.9-.6,1.4.4-.2.7-.5,1-.7.2-.2.5-.6.8-.1,0,.1-.2.5-.3.7-.4.4-.8.7-1.2,1.1-.1.1-.3.3-.4.3-.6,0-.6.4-.9.8ZM217.9,66.1c.3-1,.3-1.9.8-2.7.5-.9.5-1.7.2-2.6-.1-.3-.2-.6-.3-1,0-.2,0-.4.2-.6.2.1.4.3.5.4.2.6.4,1.3.5,1.9,1-.7,1.2-1,.9-2.1,0-.3-.2-.5-.2-.8,0-.2,0-.4.1-.6.2.1.4.2.5.3.2.3.3.7.4,1.1.4-.5.8-.8,1.2-1.3.1-.2.3-.6.2-.8-.3-.8-.5-1.6-1-2.2-1.6-2.1-3.2-4.2-4.9-6.3-2.6,2.3-4.8,4.8-4.6,8.6,0,.7.3.9.8,1.2.2-.9.3-1.8.5-2.6,0-.2.3-.4.4-.5,0,.2.3.4.3.7-.1,1-.3,1.9-.4,2.9,0,.2,0,.5.2.7,0,0,.1,0,.2,0,0-.3,0-.6.2-.8,0-.2.3-.3.4-.5,0,.2.2.4.2.6,0,.4-.1.8-.2,1.2,0,.2,0,.4,0,.6.5,1.2,1,2.3,1.6,3.5.4.4.9,1,1.3,1.5ZM239,60c0,0,.1,0,.2,0,0-.2.2-.4.2-.6-.1-1-.3-2-.4-2.9,0-.2.2-.4.2-.6.1.2.4.3.4.5.2.9.3,1.7.5,2.8.3-.4.7-.7.8-.9,0-1.3,0-2.6-.5-3.8-.8-1.9-2.1-3.5-3.8-4.8-.1,0-.3-.2-.3-.2-.7.9-1.5,1.8-2.2,2.6-.7.9-1.5,1.7-2.1,2.6-.6,1-1.1,2-1.6,3.1,0,.2,0,.5,0,.6.4.5.9,1,1.3,1.5.1-.4.2-.7.3-1,.1-.2.4-.3.6-.5,0,.2.1.5,0,.7-.5,1.4-.3,2,.8,2.7.2-.6.3-1.3.5-1.9,0-.2.3-.3.5-.5,0,.2.2.4.1.6-.1.7-.3,1.4-.5,2.1,0,.2,0,.5.1.7.3.9.6,1.7.9,2.5,0,.3,0,.5.1.8,0,0,.1,0,.2,0,.3-.4.5-1,.9-1.2.8-.3.6-1.1.9-1.6.1-.3.2-.6.3-.8.7-1,1-2.1.5-3.3,0-.1.2-.3.3-.5.1.1.3.2.4.3.1.3.2.6.2,1ZM226.6,33.6c-1,.7-2,1.4-3.1,2.2-.8.6-1.5,1.2-2.2,1.8-.2.1-.3.5-.2.7.1.5.4,1.1.6,1.6.4-.6.7-1.1,1-1.5.1-.2.4-.2.6-.3,0,.2,0,.5-.1.7-.2.4-.5.8-.7,1.2-.4.7-.3,1.2.3,1.8,0-.2.2-.3.3-.5.2-.3.3-.9.8-.6.5.3,0,.6-.2.9-.1.4-.5.8-.4,1.2,0,.6.3,1.1.5,1.7.9-.5,1.8-1.1,2.4-2.1.4-.7.5-.7,1,0,.6.9,1.4,1.5,2.4,2,.4-1.2.8-2.3-.2-3.4,0,0,0-.4,0-.5.2,0,.4,0,.5.2.2.3.4.6.6,1,.4-.5.8-.9.3-1.6-.3-.5-.6-1-.8-1.5,0-.2,0-.5,0-.7.2,0,.5.1.6.3.4.5.7,1,1.1,1.6.2-.4.3-.8.5-1.2.2-.5.2-.9-.2-1.2-.7-.6-1.4-1.1-2.1-1.7-1-.8-2.1-1.5-3.1-2.2ZM214,45.5c.4-.6.6-1,1-1.4,0-.1.3-.1.5-.2,0,.2,0,.4,0,.6-.2.5-.5.9-.8,1.3-.3.5-.2,1,.2,1.4.2-.3.4-.6.6-.9.2-.2.4-.2.7-.3,0,.2,0,.5-.1.7-.6.8-.8,1.7-.6,2.7.5-.4.9-.7,1.3-1,.5-.4.7-.3,1,.3.3.6.8,1.2,1.2,1.9.2-.7.3-1.2.6-1.6.6-1,.9-1.9.3-3,0-.1,0-.4.1-.5.2.1.4.2.5.3.2.3.3.6.4,1,.3-.4.5-.6.7-.9-.2-.6-.4-1.2-.6-1.7,0-.2,0-.4,0-.6.2.1.4.2.5.3.2.5.4,1,.5,1.4.8-.2.9-.8.7-1.5-.3-.7-.6-1.5-1-2.2-.9-1.5-1.5-3.1-1.9-4.7,0,0,0-.2,0-.3-1.3,1.1-2.5,2.3-3.8,3.3-1.5,1.1-2,2.7-2.3,4.4,0,.2,0,.5.2.9ZM232.3,46.9c.1-.3.2-.5.3-.7.2-.3,0-.9.6-.7.5.2,0,.6,0,.9,0,.4-.4.9-.2,1.3.3.9.8,1.8,1.3,2.8.4-.6.8-1.2,1.2-1.8.3-.6.5-.6,1-.3.4.3.8.6,1.3,1,.2-1.1,0-2-.6-2.8-.1-.1,0-.4-.1-.6.2,0,.5,0,.6.2.3.3.5.6.7.9.5-.5.5-1.1.2-1.6-.2-.3-.4-.7-.6-1,0-.2,0-.4,0-.7.2,0,.5.1.6.3.3.4.5.8.8,1.3.1-.3.3-.6.2-.8-.3-1.3-.4-2.7-1.4-3.6-1.5-1.5-3.1-2.8-4.8-4.3-.3,2.3-1.6,4.2-2.6,6.2-.2.4-.3.7-.4,1.1-.2.8,0,1,.7,1.3.2-.5.4-1,.6-1.5,0-.1.3-.1.5-.2,0,.2.2.3.2.5-.2.6-.4,1.3-.7,1.9.2.3.5.5.7.9ZM244.1,54.1c0,0,.2,0,.3,0,.1-.6.4-1.3.4-1.9,0-.7-.2-1.3-.4-2-.3-1-.6-2.1-1.1-3-.6-1-1.4-1.9-2.1-2.9-.1-.2-.3-.3-.5-.4-.5,1.1-1,2.1-1.4,3.2-.3.8-.5,1.7-.8,2.6-.1.4,0,.7.4,1,.2-.5.3-.9.5-1.4,0-.2.3-.2.5-.4,0,.2.2.4.1.6-.1.5-.3,1-.4,1.6,0,.3,0,.6.1.8,0,0,.1,0,.2,0,0,0,0-.2.1-.2.2-.2.3-.4.5-.5,0,.3.2.5.1.8,0,.4-.2.9,0,1.2.6,1.3,1,2.7,1,4.2.8-1,2.2-1.7,1.8-3.4,0-.2.2-.4.2-.6.1.2.3.3.4.5,0,0,0,.2,0,.2ZM212.6,43.9c-.5.7-1.1,1.4-1.7,2.1-1.1,1.3-1.8,2.7-2,4.4,0,.5-.1,1.1-.3,1.6-.3.8.1,1.5.5,2.3,0-.2,0-.2.1-.3.1-.2.3-.6.4-.6.4,0,.3.4.3.7,0,.4-.2.9,0,1.2.5.8,1.2,1.4,1.8,2.2.2-1,.3-1.9.5-2.7.3-1,.9-2,.4-3.1,0,0,.1-.3.2-.4.1,0,.3,0,.4.2.1.1.2.4.2.5,0,0,.1,0,.2,0,0-.3.2-.5.1-.8,0-.5-.3-1-.4-1.5,0-.2,0-.4,0-.7.2.1.5.3.6.5.2.4.3.8.5,1.4.2-.3.4-.6.4-.8,0-.7-.2-1.4-.4-2-.5-1.4-1.2-2.7-1.8-4.1Z"/>
      <path class="cls-1" d="M234.5,75.8c0-.2,0-.5,0-.7,0-.2.3-.3.4-.5,0,.2.3.3.3.5,0,.4,0,.8,0,1.1,0,.2-.2.3-.4.5-.1-.2-.2-.3-.3-.5,0-.1,0-.3,0-.4,0,0,0,0,0,0Z"/>
      <path class="cls-1" d="M218.1,75.6c0-.2,0-.4,0-.5,0-.2.2-.3.3-.5.1.1.3.2.4.4,0,.5,0,.9,0,1.4,0,.1-.2.2-.3.4-.1-.1-.3-.2-.4-.3,0-.3,0-.5,0-.8,0,0,0,0,0,0Z"/>
      <path class="cls-1" d="M230.2,76.2c.4-.5.8-.9,1.2-1.4,0,0,.3,0,.3.1,0,0,0,.3,0,.3-.3.4-.6.8-.9,1.2,0,0-.2,0-.3,0,0,0-.2-.2-.3-.3Z"/>
      <path class="cls-1" d="M221.4,75.2c.1-.2.2-.3.3-.3.1,0,.3,0,.4,0,.3.3.6.7.8,1.1,0,0,0,.3,0,.4,0,0-.3.1-.3.1-.4-.4-.8-.9-1.2-1.4Z"/>
      <path class="cls-1" d="M222.8,73.5c.1-.1.2-.3.2-.3.1,0,.4,0,.4,0,.2.3.4.6.6.9,0,0,0,.3,0,.4,0,0-.3.1-.4,0-.3-.3-.5-.7-.8-1.1Z"/>
      <path class="cls-1" d="M231.7,71.3c.2.1.3.2.4.3,0,.1,0,.3,0,.4-.2.3-.5.5-.7.7-.1,0-.3,0-.5,0,0-.2,0-.4,0-.4.3-.3.6-.6.9-.9Z"/>
      <path class="cls-1" d="M229.2,74.2c.3-.4.5-.8.8-1.1,0,0,.3,0,.3,0,0,0,.2.2.1.3-.2.4-.5.7-.7,1.1,0,0-.2,0-.3,0,0,0-.1-.2-.2-.3Z"/>
      <path class="cls-1" d="M221.1,71.5c.2,0,.4-.2.5-.1.3.2.6.5.9.8,0,0-.1.3-.2.5-.4-.3-.8-.6-1.2-.9,0,0,0-.2,0-.3Z"/>
      <path class="cls-1" d="M236.3,76.8c.2-.4.4-.7.6-1,.1.1.3.3.3.4-.1.3-.3.7-.5,1-.1-.1-.3-.3-.5-.5Z"/>
      <path class="cls-1" d="M215.9,76.2c.2-.2.4-.3.5-.4.2.3.3.7.4,1,0,0-.2.3-.3.4-.2-.3-.4-.6-.6-1Z"/>
      <path class="cls-1" d="M216.7,74.6c-.2.2-.4.4-.5.5-.1-.3-.3-.5-.4-.8,0-.2.2-.4.3-.6.2.2.3.5.6.8Z"/>
      <path class="cls-1" d="M236.6,74.5c.2-.3.4-.5.6-.7.1.2.3.4.3.6,0,.3-.2.5-.4.7-.1-.2-.3-.4-.5-.7Z"/>
      <path class="cls-1" d="M222.7,65.3c.3-.4.5-.7.7-1,.1.1.3.3.3.4-.2.4-.4.7-.6,1.1-.1-.1-.3-.3-.5-.5Z"/>
      <path class="cls-1" d="M230.1,65.9c-.2-.2-.3-.3-.3-.4,0-.2-.2-.4-.2-.6,0-.2,0-.4.1-.6.2.1.4.2.5.4.1.2.2.5.2.7,0,.1-.2.3-.3.5Z"/>
      <path class="cls-1" d="M230.4,62.5c.2-.2.3-.3.4-.4.2.3.5.6.6,1,0,0-.2.3-.3.4-.2-.3-.5-.6-.8-1Z"/>
      <path class="cls-1" d="M221.7,63.2c.3-.4.5-.7.8-1.1.1.1.3.3.3.3-.2.4-.4.7-.6,1.1-.1,0-.3-.2-.5-.3Z"/>
      <path class="cls-1" d="M230.2,61.9c-.3-.5-.5-.8-.7-1.1,0,0,.2-.2.3-.3.2.3.5.5.7.8,0,0-.1.3-.3.6Z"/>
      <path class="cls-1" d="M222.6,61.3c.4-.3.6-.6.9-.8,0,.1.3.3.3.3-.2.3-.5.6-.7.9,0,0-.2-.2-.5-.4Z"/>
      <path class="cls-1" d="M229.6,47.3c.1-.1.2-.3.3-.3.1,0,.3,0,.4,0,.3.4.5.8.7,1.2,0,0,0,.3,0,.4,0,0-.3,0-.4,0-.3-.4-.6-.9-.9-1.3Z"/>
      <path class="cls-1" d="M222.5,48.8c0-.2-.3-.4-.2-.5.2-.4.4-.8.7-1.2,0,0,.3-.1.4,0,0,0,.2.3.1.4-.2.4-.5.8-.7,1.3,0,0-.1,0-.3.2Z"/>
      <path class="cls-1" d="M223,52.5c-.1.4-.1.8-.3,1.1,0,.1-.3.2-.4.3,0-.1-.2-.3-.2-.4,0-.3.1-.7.2-1,0-.1.2-.2.4-.3.1.1.2.3.3.4Z"/>
      <path class="cls-1" d="M230.2,52.4c0-.1.2-.2.4-.4.1.1.3.2.3.4.1.3.2.7.2,1,0,.1-.1.3-.3.4,0,0-.3-.1-.4-.2-.1-.3-.2-.7-.3-1.1Z"/>
      <path class="cls-1" d="M230.5,51.2c-.2.2-.3.3-.4.4-.2-.3-.4-.6-.6-.9,0,0,.2-.3.3-.4.2.3.4.6.7,1Z"/>
      <path class="cls-1" d="M223.2,51.6c0-.1-.3-.3-.3-.4.1-.4.3-.7.5-1,.1.1.4.2.4.3,0,.4-.2.7-.4,1.1,0,0-.2,0-.2,0Z"/>
      <path class="cls-1" d="M245.2,63.2c-.2.5-.2.9-.4,1.3,0,.1-.3.2-.4.2,0-.1-.2-.3-.2-.4,0-.4.2-.8.4-1.2,0-.1.3-.3.4-.3.1,0,.2.3.3.3Z"/>
      <path class="cls-1" d="M247.4,61.2c0,.4-.1.7-.2,1,0,.1-.3.2-.4.2,0-.1-.2-.3-.2-.4,0-.2,0-.5.1-.7,0-.2.2-.4.3-.6.1.2.3.4.4.5Z"/>
      <path class="cls-1" d="M240.1,64.2c0-.2-.3-.4-.2-.5.1-.4.3-.8.5-1.1,0,0,.3-.1.4,0,0,0,.2.2.2.3-.2.4-.4.8-.6,1.3,0,0-.1,0-.3.1Z"/>
      <path class="cls-1" d="M246,64.3c.1-.4.2-.7.3-1,0-.1.3-.2.4-.2.1,0,.2.2.2.4,0,.3-.1.7-.3,1,0,.1-.3.3-.4.3-.1,0-.2-.2-.3-.3Z"/>
      <path class="cls-1" d="M243.4,67.1c0-.1-.2-.3-.2-.4.1-.4.3-.8.5-1.2,0,0,.4,0,.4,0,0,.2,0,.5,0,.7-.1.3-.3.6-.5.8,0,0-.2,0-.3,0Z"/>
      <path class="cls-1" d="M242.2,60.4c0,.2.2.4.2.5-.2.3-.4.6-.7.9,0,0-.3-.1-.5-.2.3-.4.5-.8.8-1.3,0,0,.2,0,.3,0Z"/>
      <path class="cls-1" d="M240.8,66c.3-.4.6-.7.8-1.1.1.1.3.3.3.4-.2.4-.4.7-.6,1-.1,0-.3-.2-.5-.4Z"/>
      <path class="cls-1" d="M241,66.7c0,.1.3.3.2.4-.2.4-.4.7-.6,1-.1-.1-.3-.3-.3-.3.1-.4.3-.7.5-1.1,0,0,.1,0,.2,0Z"/>
      <path class="cls-1" d="M209.2,64.4c0,0-.2.3-.3.3-.1,0-.4,0-.4-.2-.2-.4-.3-.8-.4-1.3,0-.1.2-.3.2-.4.1,0,.3.1.4.2.2.4.3.8.4,1.4Z"/>
      <path class="cls-1" d="M205.9,61.2c.1-.1.2-.3.4-.5.1.2.3.3.4.5,0,.2.1.5.1.7,0,.2-.1.3-.2.5-.2,0-.4-.1-.5-.3-.1-.3-.1-.6-.2-1Z"/>
      <path class="cls-1" d="M212.3,62.7c0,0,.1-.2.2-.3.1,0,.3,0,.4,0,.2.4.4.7.5,1.1,0,0-.1.3-.3.4,0,0-.3-.1-.4-.2-.2-.3-.3-.7-.5-1.1Z"/>
      <path class="cls-1" d="M206.3,63.3c0,0,.1-.3.2-.3.1,0,.4,0,.4.2.1.3.3.7.3,1,0,.1-.2.3-.2.4-.1,0-.3-.1-.4-.2-.1-.3-.2-.7-.3-1.1Z"/>
      <path class="cls-1" d="M210.8,60.9c.1-.2.2-.3.3-.3.1,0,.3,0,.4,0,.2.2.4.5.6.8,0,0,0,.3,0,.4,0,0-.3.1-.3.1-.3-.3-.6-.6-.9-1Z"/>
      <path class="cls-1" d="M208.9,65.8c.2-.2.4-.3.5-.4.2.4.5.8.7,1.2,0,0-.2.2-.3.4-.3-.4-.5-.7-.9-1.2Z"/>
      <path class="cls-1" d="M211.9,66.6c-.2-.3-.4-.5-.4-.7,0-.2,0-.5,0-.8,0,0,.3,0,.4,0,.2.4.4.7.5,1.1,0,0-.2.2-.3.4Z"/>
      <path class="cls-1" d="M212.7,68.3c-.2-.2-.4-.4-.4-.6,0-.3,0-.5,0-.8,0,0,.3,0,.4,0,.2.3.3.7.5,1.1,0,0-.2.2-.3.4Z"/>
      <path class="cls-1" d="M206.9,75.8c-.2-.2-.4-.3-.4-.4-.2-.4-.4-.8-.6-1.2,0-.1,0-.3.2-.5.2,0,.4,0,.4.2.2.4.4.8.6,1.2,0,.2,0,.4-.2.7Z"/>
      <path class="cls-1" d="M206.9,76.5c.1-.2.2-.3.3-.3,0,0,.3,0,.3,0,.3.4.6.9.9,1.4,0,0-.4.3-.4.3-.4-.4-.7-.9-1.1-1.4Z"/>
      <path class="cls-1" d="M210.2,72c.4.3.7.6,1,.9,0,0,0,.3,0,.3,0,0-.3.1-.3,0-.3-.2-.6-.4-.9-.7,0,0,0-.2,0-.3,0,0,.2-.2.3-.3Z"/>
      <path class="cls-1" d="M208.3,78.5c.1-.2.2-.4.3-.4.1,0,.3,0,.4.2.2.2.3.4.4.7,0,.1,0,.4,0,.4,0,0-.4,0-.4,0-.3-.3-.4-.6-.7-.9Z"/>
      <path class="cls-1" d="M210.7,75.3c-.4-.4-.6-.7-.9-1,.1,0,.3-.3.3-.3.3.2.6.5.9.8,0,0-.2.3-.3.5Z"/>
      <path class="cls-1" d="M211.9,76.3c-.3-.4-.6-.7-.9-1,.1-.1.4-.3.4-.3.3.3.6.5.9.8,0,0-.2.2-.4.4Z"/>
      <path class="cls-1" d="M210.7,77.3c-.4-.4-.6-.6-.9-.9.1-.1.3-.3.4-.3.3.2.6.5.9.8,0,0-.2.2-.3.5Z"/>
      <path class="cls-1" d="M211.4,73.6c.2-.2.4-.4.4-.4.3.2.5.4.8.7-.1.1-.3.3-.4.3-.3-.2-.5-.4-.8-.6Z"/>
      <path class="cls-1" d="M247.2,73.6c0,.2.2.4.1.6-.2.4-.4.8-.6,1.2,0,.1-.3.2-.4.2,0,0-.2-.3-.2-.3.2-.5.5-1,.7-1.5,0,0,.1,0,.3-.2Z"/>
      <path class="cls-1" d="M246.1,76.1c0,.2.3.4.2.5-.3.5-.6.9-.9,1.3,0,0-.3,0-.4,0,0,0-.2-.2-.1-.3.3-.5.6-.9.9-1.4,0,0,.1,0,.3-.1Z"/>
      <path class="cls-1" d="M241.8,72.9c.5-.4.9-.6,1.3-.9,0,.1.3.4.3.4-.3.3-.7.6-1.1.8,0,0-.3-.2-.5-.4Z"/>
      <path class="cls-1" d="M243.7,79.3c.3-.5.5-.8.8-1.1,0,0,.3.2.4.3-.2.4-.5.7-.7,1.1,0,0-.3-.1-.5-.2Z"/>
      <path class="cls-1" d="M243.1,73.8c.2.2.4.4.4.4-.3.3-.6.6-.9.8,0,0-.2-.2-.3-.3.3-.3.6-.6.9-1Z"/>
      <path class="cls-1" d="M240.8,75.7c.5-.3.9-.5,1.3-.8,0,.1.2.4.2.4-.3.3-.6.5-.9.7,0,0-.2-.1-.6-.4Z"/>
      <path class="cls-1" d="M242.3,77c0-.4.8-1,1.1-.9.1,0,.2.4.2.4-.3.3-.6.5-.9.7,0,0-.2-.1-.3-.2Z"/>
      <path class="cls-1" d="M241.1,74.5c-.2-.3-.4-.5-.4-.5.2-.3.4-.5.7-.7.1.1.4.3.3.3-.2.3-.4.5-.6.9Z"/>
      <path class="cls-1" d="M218.7,58.8c-.2-.2-.3-.2-.4-.3-.2-.3-.4-.7-.5-1,0-.1.1-.3.2-.5.1,0,.3,0,.4.2.2.3.3.6.4.9,0,.2,0,.4-.2.7Z"/>
      <path class="cls-1" d="M214.4,55.2c0-.2-.3-.3-.2-.5,0-.4.2-.7.4-1.1,0,0,.2-.2.4-.1,0,0,.2.2.2.2-.1.4-.3.9-.5,1.3,0,0-.1,0-.3.1Z"/>
      <path class="cls-1" d="M215.7,56.7c0,.4,0,.7-.2,1,0,.1-.3.2-.4.3,0-.1-.3-.2-.3-.4,0-.3,0-.6.1-.9,0-.2.2-.3.4-.4.1.2.3.3.3.4Z"/>
      <path class="cls-1" d="M219.6,55.9c-.4,0-1.1-1-.9-1.2,0-.1.4-.2.5-.1.2.3.5.6.6.9,0,.1-.1.3-.2.4Z"/>
      <path class="cls-1" d="M219.6,56.8c.2-.1.4-.2.5-.3.2.4.4.7.6,1.1,0,0-.2.2-.3.3-.2-.3-.5-.7-.8-1.1Z"/>
      <path class="cls-1" d="M235.3,56.9c0,.2.3.3.2.5-.1.4-.3.7-.5,1.1,0,0-.3.1-.4.1,0,0-.2-.2-.2-.3.2-.4.4-.9.6-1.3,0,0,.1,0,.3-.1Z"/>
      <path class="cls-1" d="M238.1,53.9c0-.1.2-.3.3-.3.1,0,.4,0,.4.2.2.3.3.7.4,1,0,.1-.1.3-.2.5-.1,0-.3-.1-.4-.2-.2-.3-.3-.7-.4-1.1Z"/>
      <path class="cls-1" d="M237.6,56.7c0,0,.2-.3.3-.3,0,0,.3.2.4.3,0,.3.2.6.1.9,0,.2-.2.3-.3.5-.1-.1-.3-.2-.4-.4,0-.2,0-.5-.2-.9Z"/>
      <path class="cls-1" d="M233.3,55.7c.3-.5.6-.8.8-1.2,0,0,.3,0,.3,0,0,0,.2.2.1.3-.2.4-.4.7-.7,1,0,0-.3-.1-.6-.2Z"/>
      <path class="cls-1" d="M232.8,57.9c0-.1-.2-.3-.2-.4.2-.4.4-.7.7-1,.1.1.3.3.3.4-.1.4-.3.7-.5,1.1,0,0-.1,0-.2,0Z"/>
      <path class="cls-1" d="M223.4,37.5c.4-.4.8-.7,1.3-1.1,0,0,.3,0,.3.2,0,.1,0,.3,0,.4-.3.3-.5.6-.8.9,0,0-.3.1-.4,0,0,0-.1-.2-.3-.4Z"/>
      <path class="cls-1" d="M228.7,36.3c.4.4.8.9,1,1.3.1.2-.3.4-.5.2-.3-.3-.6-.6-.9-.9,0-.1,0-.4,0-.6,0,0,.2,0,.3,0Z"/>
      <path class="cls-1" d="M224,39.9c.2-.3.4-.6.6-.9,0,0,.3,0,.5,0,0,.2,0,.3,0,.5,0,.2-.2.4-.3.6-.1.1-.3.3-.4.3-.1,0-.2-.2-.3-.4Z"/>
      <path class="cls-1" d="M228,39.1c.2,0,.5-.2.6-.1.2.3.4.7.6,1,0,0-.1.3-.2.4,0,0-.3-.1-.4-.2-.2-.3-.3-.6-.5-1Z"/>
      <path class="cls-1" d="M215.4,42.9c.5-.7.8-1.2,1.2-1.7,0,0,.3,0,.4,0,0,0,0,.3,0,.4-.2.4-.5.8-.7,1.2,0,.1-.3.2-.4.2-.1,0-.3,0-.5-.2Z"/>
      <path class="cls-1" d="M218.9,44c.1-.1.2-.3.3-.3.1,0,.3,0,.4.1.2.3.4.6.5,1,0,0,0,.3-.1.4,0,0-.3,0-.4,0-.2-.4-.4-.7-.7-1.1Z"/>
      <path class="cls-1" d="M217.1,43.9c.2.2.4.4.3.4-.2.4-.4.8-.6,1.1,0,0-.4,0-.4,0,0-.2,0-.4,0-.6.1-.3.3-.5.5-.8Z"/>
      <path class="cls-1" d="M220.1,42.2c.2-.2.4-.3.5-.3.2.3.4.7.6,1,0,0-.2.2-.3.3-.2-.3-.5-.6-.8-1Z"/>
      <path class="cls-1" d="M220,41.7c-.2-.4-.4-.7-.5-1,0,0,.2-.2.4-.4.2.3.4.6.5.9,0,0-.2.2-.4.5Z"/>
      <path class="cls-1" d="M237.3,43.3c-.2-.2-.3-.4-.4-.5-.2-.5-.4-.9-.7-1.4.2,0,.4-.1.4,0,.3.5.7,1,.9,1.6,0,0-.1.2-.3.5Z"/>
      <path class="cls-1" d="M233.1,44.9c.2-.4.5-.8.7-1.2,0,0,.3,0,.3,0,0,0,.2.2.1.3-.2.4-.3.8-.6,1.1,0,0-.3,0-.4,0,0,0-.1-.2-.2-.3Z"/>
      <path class="cls-1" d="M236.5,45.6c-.2-.3-.4-.6-.6-.9,0-.2,0-.4,0-.6,0,0,.3-.1.4,0,.2.4.4.7.6,1.1,0,0-.2.2-.3.4Z"/>
      <path class="cls-1" d="M231.9,42.9c.3-.4.5-.7.8-1,.1.1.3.3.3.3-.2.4-.4.7-.6,1-.1,0-.3-.2-.5-.3Z"/>
      <path class="cls-1" d="M232.7,41.2c.3-.3.6-.6.8-.8.1.1.3.3.3.4-.2.3-.4.5-.6.8,0,0-.2-.2-.5-.3Z"/>
      <path class="cls-1" d="M243.4,50.2c-.1.1-.2.3-.4.3-.1,0-.3-.2-.4-.3-.1-.3-.2-.6-.2-.9,0-.1.1-.4.2-.4.1,0,.4,0,.4.2.1.3.2.7.3,1.1Z"/>
      <path class="cls-1" d="M239.7,48.3c.1-.4.2-.7.4-1,0-.1.3-.2.4-.2.1,0,.2.3.2.4,0,.3-.1.6-.3.8,0,.1-.3.3-.4.3,0,0-.2-.2-.3-.4Z"/>
      <path class="cls-1" d="M240.2,50.5c.1-.4.2-.7.3-1,0-.1.3-.2.4-.2.1,0,.2.2.2.4,0,.3-.1.6-.3.9,0,.1-.3.3-.4.2-.1,0-.2-.3-.3-.4Z"/>
      <path class="cls-1" d="M243.5,52.9c-.2-.2-.3-.3-.4-.4,0-.2-.2-.5-.2-.7,0-.2.1-.3.2-.5.2,0,.4.1.4.2.1.3.2.6.2.8,0,.1-.1.3-.3.5Z"/>
      <path class="cls-1" d="M209.9,50.1c.1-.4.2-.7.3-1,0-.1.3-.2.4-.2,0,.2.2.3.2.5,0,.3,0,.5-.2.8,0,.2-.3.3-.4.4-.1-.2-.3-.3-.4-.4Z"/>
      <path class="cls-1" d="M213.6,48.4c0,.1-.2.3-.3.3-.1,0-.4-.1-.4-.2-.1-.3-.2-.5-.3-.8,0-.2.1-.3.2-.5.2,0,.4.1.4.2.2.3.2.6.4,1Z"/>
      <path class="cls-1" d="M212.1,49.7c0,0,.1-.3.2-.3.1,0,.4,0,.4.1.1.3.3.7.3,1.1,0,0-.2.3-.3.3,0,0-.3,0-.3-.2-.1-.3-.2-.7-.3-1.1Z"/>
      <path class="cls-1" d="M209.3,52.3c.3-.4.5-.7.7-1,0,.1.3.3.3.4-.2.4,0,1-.6,1.1,0,0-.2-.3-.4-.5Z"/>
    </g>
    <rect class="cls-1" x="138.3" y="83.1" width="52.5" height=".9"/>
    <rect class="cls-1" x="262.7" y="83.1" width="52.4" height=".9"/>
  </g>
  <g>
    <path class="cls-1" d="M72.4,149.9c0,8.1-6.6,14.7-15.6,14.7s-15.5-6.6-15.5-14.7,6.4-14.7,15.5-14.7,15.6,6.6,15.6,14.7ZM49,150c0,7.5,2.8,12.3,7.9,12.3s7.8-4.9,7.8-12.4-2.3-12.6-7.8-12.6-7.8,5.1-7.8,12.6Z"/>
    <path class="cls-1" d="M92,135.9v2c-1.7,0-3.3.4-3.3,2.7v18.2c0,1.8.5,3.1,2.5,3.1h4.3c3.5,0,4.6-2.4,4.8-7.2h2.1v7.2c0,1.6-.6,2.2-2,2.2h-21.4v-2c2.4,0,3.3-.6,3.3-3v-18.5c0-2.3-1.6-2.7-3.3-2.7v-2h13.1Z"/>
    <path class="cls-1" d="M108,162.1c1.7,0,3.3-.4,3.3-2.6v-19c0-2.2-1.6-2.6-3.3-2.6v-2h12.3c12.2,0,16.7,6.1,16.7,14s-4.8,14.2-16.7,14.2h-12.3v-2ZM120.3,161.8c6.1,0,9.6-4.7,9.6-11.9s-3.3-11.8-9.6-11.8h-2.5v21.8c0,1.3.4,1.9,1.9,1.9h.6Z"/>
    <path class="cls-1" d="M172.6,164.6c-9.3,0-14.8-6.5-14.8-14.7s5.2-14.7,14.8-14.7,8.1,3.3,8.9,3.3.4-.6.6-2.6h2.2v8.8h-2.4c-.8-3.9-3.3-7.1-7.8-7.1s-9,4.9-9,12.4,3.9,11.8,8.7,11.8,7.6-3.1,8.6-7.8l2.3.6c-.8,5.5-5.1,10.1-12.1,10.1Z"/>
    <path class="cls-1" d="M204.5,135.9v2c-1.7,0-3.4.4-3.4,2.6v19c0,2.2,1.7,2.6,3.4,2.6v2h-13.4v-2c1.7,0,3.4-.4,3.4-2.6v-19c0-2.2-1.7-2.6-3.4-2.6v-2h13.4Z"/>
    <path class="cls-1" d="M229.9,164.1h-13v-2c2,0,3.3-.6,3.3-2.8v-21.2h-3.3c-3.5,0-4.1,3.9-4.3,6.8h-2.1v-6.2c0-1.8.8-2.7,2.1-2.7h21.8c1.2,0,1.9.8,1.9,2.7v6.2h-2.1c-.2-2.9-.8-6.8-4.3-6.8h-3.3v21.3c0,2.2,1.2,2.8,3.2,2.8v2Z"/>
    <path class="cls-1" d="M261.3,164.1h-13v-2c2.1,0,3.2-.6,3.2-3v-6.9l-5.8-11.2c-1-1.9-2.2-3.1-4.1-3.1v-2h5.8c2.6,0,3.3.7,4.1,2.5l5.6,10.6,4.6-8.6c1-1.8-.4-2.5-2.2-2.5v-2h8.9v2c-1.3,0-2.8.4-4.2,2.9l-6.2,11.4v6.9c0,2.4,1.1,3,3.3,3v2Z"/>
    <path class="cls-1" d="M300.9,164.1h-13.2v-2c1.7,0,3.3-.4,3.3-2.6v-19c0-2.2-1.6-2.6-3.3-2.6v-2h13.2v2c-1.7,0-3.3.4-3.3,2.6v7h10.7v-7c0-2.2-1.6-2.6-3.3-2.6v-2h13.1v2c-1.7,0-3.3.4-3.3,2.6v18.8c0,2.4,1.6,2.7,3.3,2.7v2h-13.1v-2c1.7,0,3.3-.4,3.3-2.6v-9.6h-10.7v9.4c0,2.4,1.6,2.7,3.3,2.7v2Z"/>
    <path class="cls-1" d="M333.5,164.1h-10.1v-2.1c1.6,0,3.2.2,4.3-2.5l9.4-23.6h3.7l8.5,22.6c.9,2.5,2.2,3.6,4.7,3.6v2h-14.2v-2.1c2.3,0,4.1-.5,3-3.3l-1.1-2.9h-9.4l-1.6,4.1c-1,2.5,1.9,2.3,2.9,2.2v2.1ZM337,143.5l-3.9,9.8h7.6l-3.7-9.8Z"/>
    <path class="cls-1" d="M372.5,135.9v2c-1.7,0-3.3.4-3.3,2.7v18.2c0,1.8.5,3.1,2.5,3.1h4.3c3.5,0,4.6-2.4,4.7-7.2h2.1v7.2c0,1.6-.6,2.2-2,2.2h-21.4v-2c2.4,0,3.3-.6,3.3-3v-18.5c0-2.3-1.6-2.7-3.3-2.7v-2h13.1Z"/>
    <path class="cls-1" d="M401.7,135.9v2c-1.7,0-3.3.4-3.3,2.7v18.2c0,1.8.5,3.1,2.5,3.1h4.3c3.5,0,4.6-2.4,4.7-7.2h2.1v7.2c0,1.6-.6,2.2-2,2.2h-21.4v-2c2.4,0,3.3-.6,3.3-3v-18.5c0-2.3-1.6-2.7-3.3-2.7v-2h13.1Z"/>
  </g>
  <g>
    <path class="cls-1" d="M147.2,79.6h-9l.2-.6c.9,0,1.6-.3,1.9-1.5l2.5-7.7c.3-.8.1-1.5-1-1.5l.2-.6h8c.6,0,.7.3.6.7l-.7,2.5h-.6c.4-1.4.1-2.6-1.2-2.6h-3l-1.4,4.5h1.2c1.2,0,1.9-.9,2.2-1.7h.7l-1.4,4.3h-.6c.4-1.2,0-1.9-.9-1.9h-1.3l-1.5,4.5c-.2.7.2.9.7.9h1.8c2.4,0,3.3-1.2,3.8-2.7h.7l-.8,2.7c-.2.6-.4.7-1.1.7Z"/>
    <path class="cls-1" d="M160.1,76c0,2.3-2.1,3.8-4.3,3.8s-2.7-1.5-3-1.5-.3.2-.8,1.3h-.8l1.2-3.8h.7c0,2.1,1,3.2,2.6,3.2s2.6-.9,2.6-2.3c0-2.2-4.1-2.8-4.1-5.8s1.7-3.4,3.7-3.4,2.7,1.2,3,1.2.3-.2.8-1.1h.6l-1.2,3.7h-.7c.2-1.8-.6-3.1-2.3-3.1s-2.1.7-2.1,2c0,2.4,4.1,2.7,4.1,5.7Z"/>
    <path class="cls-1" d="M169.5,79.6h-5l.2-.6c1,0,1.6-.4,1.9-1.5l3-9.2h-1.3c-1.5,0-2.5,1.7-2.9,3.1h-.6l.9-2.9c.2-.6.5-.8,1.2-.8h7.9c.7,0,.8.3.6.8l-.9,2.9h-.6c.4-1.5.5-3.1-.9-3.1h-1.6l-3,9.3c-.3,1,.1,1.3,1.3,1.3l-.2.6Z"/>
    <path class="cls-1" d="M175,79c.9,0,1.5-.4,1.8-1.2l2.7-8.2c.4-1.2-.2-1.2-1-1.2l.2-.6h4.2c4.3,0,5.5,2.6,4.8,5.9-.7,3.3-3.1,6-7.4,6h-5.4l.2-.6ZM179.3,78.9h.9c2.7,0,4.6-2.4,5.2-5,.8-3.4.1-5.6-2.6-5.6h-1.2l-3.1,9.6c-.3.8,0,1,.7,1Z"/>
    <path class="cls-1" d="M190,77.7c.6,0,1,.5,1,1s-.4,1-1,1-1-.4-1-1,.4-1,1-1Z"/>
  </g>
  <g>
    <path class="cls-1" d="M275.6,76.9c-.4,2.4-1.7,2.8-2.5,2.8s-1.7-.8-3-.8-1.4.3-2.3.7l-.3-.6c2.2-2.2,7.5-4.8,7.5-8s-.8-1.8-1.8-1.8-1.6.4-1.8,1.2c.6,0,1.1.3,1.1,1s-.4,1-1,1-1.1-.4-1.1-1.2c0-1.3,1.2-2.7,3.3-2.7s3.2,1.1,3.2,2.8c0,2.8-4.3,4.8-6.7,6.3h0c.3-.1.6-.2,1.1-.2,1,0,1.6.6,2.3.6s1.2-.4,1.4-1h.6Z"/>
    <path class="cls-1" d="M282.5,79.8c-2.1,0-3-1.4-3-3.4,0-3.9,2.6-7.8,6-7.8s3,1.5,3,3.3c0,3.8-2.8,8-6,8ZM285.5,69.2c-2.1,0-4.3,4.4-4.3,7.8s.4,2,1.3,2c1.9,0,4.2-4.5,4.2-7.9s-.4-1.9-1.2-1.9Z"/>
    <path class="cls-1" d="M297.4,76.9c-.4,2.4-1.7,2.8-2.5,2.8s-1.7-.8-3-.8-1.4.3-2.3.7l-.3-.6c2.2-2.2,7.5-4.8,7.5-8s-.8-1.8-1.8-1.8-1.6.4-1.8,1.2c.6,0,1.1.3,1.1,1s-.4,1-1,1-1.1-.4-1.1-1.2c0-1.3,1.2-2.7,3.3-2.7s3.2,1.1,3.2,2.8c0,2.8-4.3,4.8-6.7,6.3h0c.3-.1.6-.2,1.1-.2,1,0,1.6.6,2.3.6s1.2-.4,1.4-1h.6Z"/>
    <path class="cls-1" d="M305.7,79.6h-3.6v-.5c.8,0,1.3-.4,1.4-.9l.5-1.6h-4.4l.2-.6c3.2-2.1,4.7-4,5.7-5.6.8-1.3.6-2.7,1.8-2.7s1,.6.7,1.5c-.4,1.6-3.2,4.3-7.1,6.8h3.4l.6-2h1.6l-.6,2h1.1l-.2.6h-1.1l-.5,1.6c-.2.6,0,.9.7.9v.5Z"/>
  </g>
  <g>
    <path class="cls-1" d="M144.9,206.6c5.9,0,7.6,2.7,7.6,5.1s-1.9,4.9-4.8,5.5c3.8.2,7,2.5,6.9,6.4,0,3.8-3.5,6.6-8.7,6.6h-10.5v-1.2c2,0,2.9-.4,2.9-2.6v-16.3c0-2.1-1.2-2.3-2.9-2.3v-1.1h9.5ZM141.8,207.9v9.1h1.2c3.3,0,5.9-1.6,5.9-4.8s-2.7-4.2-5-4.2h-2.1ZM141.8,227.2c0,1.3.5,1.8,1.7,1.8h1.2c4.6,0,6-2.9,6-5.7s-2.1-5.2-6.7-5.2h-2.2v9.1Z"/>
    <path class="cls-1" d="M160.4,230.2v-1.2c1.5,0,2.9-.3,2.9-2.2v-17.1c0-1.9-1.3-2-2.9-2v-1.1h10.4c5,0,7.3,2.6,7.3,5.7s-1.4,5.2-5.6,5.8c4.7,1.4,3.5,10.9,8.2,10.9v1.2h-1.8c-2.1,0-2.9-.4-3.7-1.1-2.7-2.5-2.7-10.6-7.5-10.6h-.8v8.2c0,1.9,1.3,2.3,3,2.3v1.2h-9.4ZM166.9,217.3h2.4c3.9,0,5.3-3,5.3-5s-1.6-4.5-4.5-4.5h-3.1v9.6Z"/>
    <path class="cls-1" d="M188.3,210.1c0-2.3-1.5-2.4-2.9-2.4v-1.1h16.8c1,0,1.3.3,1.3,1.3v5.1h-1.2c0-3-1-5-4-5h-6.5v8.7h2.4c3.2,0,3-2.6,3-3.4h1.3v8.2h-1.3c0-1.2.1-3.5-3-3.5h-2.4v9.2c0,1.1.6,1.7,1.7,1.7h4c5,0,5.8-1.8,5.8-5.4h1.3v5.1c0,1.2-.3,1.7-1.6,1.7h-17.7v-1.2c1.3,0,2.9-.2,2.9-2.8v-16.1Z"/>
    <path class="cls-1" d="M227.1,212.2l-6.2,18h-1.2l-6.5-19.6c-1-3-2.4-2.8-3.6-2.8v-1.1h3.6c2,0,2.8.8,3.6,3.2l4.9,14.3,5.9-17.4h1.3l6.7,17.6,4.4-13.9c.7-2.2-1-2.5-2.3-2.5v-1.1h7.2v1.1c-1.2,0-2.6.3-3.4,2.7l-6.7,19.7h-1.2l-6.6-18Z"/>
    <path class="cls-1" d="M252.2,210.1c0-2.3-1.5-2.4-2.9-2.4v-1.1h16.8c1,0,1.3.3,1.3,1.3v5.1h-1.2c0-3-1-5-4-5h-6.5v8.7h2.4c3.2,0,3-2.6,3-3.4h1.3v8.2h-1.3c0-1.2.1-3.5-3-3.5h-2.4v9.2c0,1.1.6,1.7,1.7,1.7h4c5,0,5.8-1.8,5.8-5.4h1.3v5.1c0,1.2-.3,1.7-1.6,1.7h-17.7v-1.2c1.3,0,2.9-.2,2.9-2.8v-16.1Z"/>
    <path class="cls-1" d="M274.7,230.2v-1.2c1.5,0,2.9-.3,2.9-2.2v-17.1c0-1.9-1.3-2-2.9-2v-1.1h10.4c5,0,7.3,2.6,7.3,5.7s-1.4,5.2-5.6,5.8c4.7,1.4,3.5,10.9,8.2,10.9v1.2h-1.8c-2.1,0-2.9-.4-3.7-1.1-2.7-2.5-2.7-10.6-7.5-10.6h-.8v8.2c0,1.9,1.3,2.3,3,2.3v1.2h-9.4ZM281.1,217.3h2.4c3.9,0,5.3-3,5.3-5s-1.6-4.5-4.5-4.5h-3.1v9.6Z"/>
    <path class="cls-1" d="M312.2,230.2h-9.3v-1.2c2.1,0,2.9-.7,2.9-2.4v-7.8l-4.8-8.6c-1-1.7-1.7-2.5-3.8-2.5v-1.1h3.6c2.2,0,2.7.8,3.5,2.3l4.4,8.2,4.4-7.5c.9-1.5.4-1.9-1.3-1.9v-1.1h6.1v1.1c-1.2,0-2.2.4-3.4,2.3l-5.2,8.7v7.9c0,1.7.8,2.4,2.8,2.4v1.2Z"/>
  </g>
</svg>